<?xml version="1.0" encoding="utf-8"?>
<!-- Generator: Adobe Illustrator 23.0.1, SVG Export Plug-In . SVG Version: 6.00 Build 0)  -->
<svg version="1.1" id="Capa_1" xmlns="http://www.w3.org/2000/svg" xmlns:xlink="http://www.w3.org/1999/xlink" x="0px" y="0px"
	 viewBox="0 0 1080 1080" style="enable-background:new 0 0 1080 1080;" xml:space="preserve">
<g>
	<g>
		<path d="M925.5,152H155c-68.8,0-124.7,55.9-124.7,124.7v526.6C30.3,872.1,86.3,928,155,928h770.3c68.8,0,124.7-55.9,124.7-124.7
			V276.9C1050.2,208.1,994.3,152,925.5,152z M993.2,803.3c0,37.3-30.4,67.7-67.7,67.7H155c-37.3,0-67.7-30.4-67.7-67.7V276.9
			c0-37.3,30.4-67.7,67.7-67.7h770.3c37.3,0,67.7,30.4,67.7,67.7v526.4H993.2z"/>
		<path d="M673.4,533.5l249.4-223.6c11.6-10.5,12.7-28.5,2.1-40.3c-10.5-11.6-28.5-12.7-40.3-2.1L540.7,576.1l-67.1-59.9
			c-0.2-0.2-0.4-0.4-0.4-0.6c-1.5-1.5-3-2.7-4.6-4l-273-244.3c-11.8-10.5-29.7-9.5-40.3,2.3c-10.5,11.8-9.5,29.7,2.3,40.3
			l252.3,225.5L158.6,770.6c-11.4,10.8-12,28.7-1.3,40.3c5.7,5.9,13.3,9.1,20.9,9.1c7,0,13.9-2.5,19.4-7.6l255.1-238.6l69.2,61.8
			c5.5,4.9,12.2,7.2,19,7.2s13.7-2.5,19-7.4l71.1-63.7l253.6,240.9c5.5,5.3,12.7,7.8,19.6,7.8c7.6,0,15-3,20.7-8.9
			c10.8-11.4,10.3-29.5-1.1-40.3L673.4,533.5z"/>
	</g>
</g>
</svg>
