<?xml version="1.0" encoding="utf-8"?>
<!-- Generator: Adobe Illustrator 23.0.1, SVG Export Plug-In . SVG Version: 6.00 Build 0)  -->
<svg version="1.1" id="Capa_1" xmlns="http://www.w3.org/2000/svg" xmlns:xlink="http://www.w3.org/1999/xlink" x="0px" y="0px"
	 viewBox="0 0 960 960" style="enable-background:new 0 0 960 960;" xml:space="preserve">
<style type="text/css">
	.st0{fill:#FFFFFF;}
</style>
<g>
	<circle class="st0" cx="322.3" cy="160.6" r="57"/>
	<circle class="st0" cx="467.6" cy="131.6" r="57"/>
	<circle class="st0" cx="201.1" cy="254.5" r="57"/>
	<circle class="st0" cx="134.3" cy="388.8" r="57"/>
	<path class="st0" d="M601.9,102.8c-28.3,13.6-40.2,47.7-26.6,76c13.6,28.3,47.7,40.2,76,26.6c17.8-8.5,29.8-25.7,31.9-45.3
		C657.7,138.8,630.5,119.7,601.9,102.8z"/>
	<path class="st0" d="M725.9,205.4c-27.6,15-37.9,49.5-22.9,77.2c14.6,27,48,37.5,75.5,23.8C766.1,270.3,748.4,236.3,725.9,205.4z"
		/>
	<path class="st0" d="M164.6,499c-25.4-18.6-61.1-13-79.6,12.4s-13,61.1,12.4,79.6c19.7,14.4,46.4,14.7,66.4,0.6
		C160,560.8,160.3,529.7,164.6,499z"/>
	<path class="st0" d="M173.7,642.3c-29.3,11.4-43.9,44.4-32.5,73.7c11.4,29.3,44.4,43.9,73.7,32.5c2.5-1,4.9-2.1,7.3-3.4
		C200.4,713.8,184,679,173.7,642.3z"/>
	<circle class="st0" cx="479.8" cy="480.5" r="252.6"/>
	<path class="st0" d="M479.8,11.3C219.1,11.3,7.9,221.4,7.9,480.5s211.3,469.2,471.9,469.2s471.9-210.1,471.9-469.2
		S740.4,11.3,479.8,11.3z M479.8,885.8C256,885.8,74.5,704.4,74.4,480.6c0-223.8,181.4-405.3,405.2-405.3
		C703.5,75.2,885,256.6,885,480.5c0,0,0,0,0,0.1C885,704.3,703.6,885.8,479.8,885.8L479.8,885.8z"/>
	<g>
		<polygon class="st0" points="226.8,363.7 322.3,363.7 359.2,506.7 395.8,363.7 491.6,363.7 491.6,598.8 431.8,598.8 431.8,419.5 
			386,598.8 332.2,598.8 286.4,419.5 286.4,598.8 226.8,598.8 		"/>
	</g>
	<g>
		<path class="st0" d="M631.3,513.6v-48.9h112.3v100.2c-17.5,12.6-36.7,22.7-57,29.9c-19.1,5.7-38.9,8.3-58.7,7.9
			c-27.9,0-50.7-4.8-68.2-14.3c-17.7-9.6-32-24.4-40.9-42.5c-10-20.1-15-42.3-14.6-64.8c-0.6-23.3,4.9-46.4,15.9-67
			c10.6-18.9,26.8-34.1,46.5-43.2c16-7.6,37.4-11.4,64.3-11.4c26,0,45.4,2.4,58.3,7.1c12.4,4.4,23.5,12,32,22.1
			c9.1,11,15.6,23.8,19.1,37.6l-70.1,12.5c-2.5-8.2-7.6-15.4-14.7-20.4c-7.9-5-17.1-7.4-26.4-7.1c-14.6-0.6-28.6,5.5-38.1,16.5
			c-9.5,11-14.2,28.5-14.2,52.5c0,25.5,4.8,43.7,14.3,54.6c10.2,11.2,24.9,17.3,40,16.5c7.9,0,15.7-1.1,23.2-3.5
			c8.9-3,17.4-7.1,25.4-12V514L631.3,513.6z"/>
	</g>
	<path class="st0" d="M479.8,172.1c-170.3,0-308.4,138.1-308.4,308.4s138.1,308.4,308.4,308.4s308.4-138.1,308.4-308.4
		C788.2,310.2,650.1,172.1,479.8,172.1z M479.8,752.3c-150.1,0-271.8-121.6-271.8-271.7c0-150.1,121.6-271.8,271.7-271.8
		c150.1,0,271.8,121.6,271.8,271.7c0,0,0,0.1,0,0.1C751.5,630.6,629.9,752.3,479.8,752.3z"/>
	<path class="st0" d="M486.1,55.9c0,0,382.8,110.3,293.1,489.1c0,0,126.2-256.3-164.8-453.1C614.6,91.9,546.4,53.1,486.1,55.9z"/>
	<path class="st0" d="M474.1,915.1c0,0-382.8-110.3-293-489c0,0-126.2,256.3,164.7,453C345.8,879.1,414,917.9,474.1,915.1z"/>
	<path class="st0" d="M300.9,788.6l11,4.6c-0.6,1.5-0.8,3.1-0.6,4.6c0.5,2.1,1.9,3.8,3.8,4.6c1.2,0.8,2.8,1,4.2,0.7
		c1.1-0.2,2.1-0.9,2.6-1.9c0.4-1,0.4-2.1,0-3.1c-1.2-1.9-2.8-3.6-4.6-4.9c-3.5-2.5-6.3-5.8-8.3-9.5c-1.2-2.7-1.1-5.9,0.3-8.5
		c0.9-1.9,2.4-3.4,4.2-4.5c2-1.1,4.4-1.6,6.7-1.4c3.3,0.3,6.6,1.3,9.5,2.9c3.8,1.6,7,4.3,9.2,7.8c1.5,3.3,1.5,7,0,10.3l-10.8-4.6
		c0.5-1.4,0.5-3,0-4.4c-0.7-1.3-1.8-2.3-3.1-2.9c-1-0.6-2.2-0.8-3.3-0.6c-0.9,0.2-1.6,0.7-2,1.5c-0.3,0.6-0.3,1.3,0,1.9
		c0.7,1.3,1.8,2.4,3,3.2c3.3,2.4,6.3,5.2,8.9,8.3c1.4,1.8,2.3,4,2.6,6.2c0.2,2.1-0.2,4.2-1.2,6.1c-1.1,2.3-2.8,4.2-5,5.5
		c-2.3,1.3-4.9,2-7.6,1.8c-3.3-0.3-6.5-1.2-9.4-2.8c-4.8-1.7-8.7-5.3-11-9.8C299,796,299.3,792.1,300.9,788.6z"/>
	<path class="st0" d="M339.5,800.1c2.5-10.1,12.8-16.3,22.9-13.8c1.2,0.3,2.4,0.7,3.5,1.3c5.5,1.5,10.1,5.2,12.7,10.3
		c2.2,5.1,2.2,10.9,0,16c-1.2,3.8-3.3,7.2-6.1,10c-2.4,2.3-5.5,3.8-8.8,4.3c-3.8,0.5-7.7,0-11.3-1.4c-3.7-1.2-7.1-3.1-9.9-5.8
		c-2.3-2.5-3.9-5.6-4.5-8.9C337.5,808.1,338,803.9,339.5,800.1z M351.1,804.4c-1.3,2.8-1.6,6-0.8,9c0.8,2.2,2.7,3.9,4.9,4.6
		c2.2,0.9,4.6,0.8,6.7-0.4c2.6-2,4.4-4.9,5.2-8.1c1.2-2.7,1.5-5.7,0.7-8.6c-0.9-2.2-2.7-3.9-5-4.5c-2.1-0.9-4.6-0.7-6.6,0.4
		C353.7,798.7,351.9,801.4,351.1,804.4z"/>
	<path class="st0" d="M387.7,796.1l15.9,3.4l1.1,25.2l11-22.6l15.9,3.4l-8.3,39.2l-9.9-2.1l6.3-29.9l-14,28.3l-9-1.9l-1.3-31.6
		l-6.2,29.7l-9.9-2.1L387.7,796.1z"/>
	<path class="st0" d="M432.7,825.7c-0.3-10.4,8-19.1,18.4-19.4c1.2,0,2.4,0.1,3.6,0.3c5.7,0.1,11.1,2.4,15,6.5
		c3.5,4.4,5,9.9,4.2,15.4c-0.2,3.9-1.3,7.7-3.2,11c-1.8,2.8-4.3,5.1-7.4,6.5c-3.5,1.5-7.3,2-11,1.7c-3.9-0.2-7.6-1.2-11-3
		c-2.9-1.7-5.2-4.3-6.7-7.3C433,833.7,432.3,829.7,432.7,825.7z M445,826.7c-0.5,3.1,0.1,6.2,1.6,8.9c3,3.7,8.5,4.2,12.1,1.2
		c0.1-0.1,0.1-0.1,0.2-0.2c1.9-2.7,2.9-5.9,2.9-9.2c0.5-2.9-0.1-5.9-1.7-8.4c-1.4-1.9-3.6-3-6-3c-2.3-0.3-4.6,0.5-6.2,2.2
		C446,820.5,445,823.6,445,826.7L445,826.7z"/>
	<path class="st0" d="M477.5,835.5l11.7-1.2c0.2,1.6,0.8,3,1.8,4.3c1.4,1.6,3.4,2.4,5.5,2.2c1.5,0.1,2.9-0.5,4.1-1.4
		c0.8-0.7,1.3-1.8,1.3-2.9c-0.1-1.1-0.6-2.1-1.5-2.8c-2-1.1-4.2-1.8-6.5-2c-4.2-0.5-8.3-2-11.8-4.4c-2.4-1.8-3.8-4.6-3.8-7.6
		c-0.1-2.1,0.4-4.1,1.5-5.9c1.2-2,3-3.6,5.2-4.6c3.1-1.3,6.5-1.9,9.8-2c4.1-0.4,8.2,0.4,11.8,2.4c2.9,2.1,4.8,5.3,5.2,8.9l-11.6,1.2
		c-0.2-1.5-1-2.9-2.2-3.9c-1.2-0.8-2.7-1.2-4.1-1c-1.2-0.1-2.3,0.3-3.2,1c-0.7,0.6-1.1,1.4-1,2.3c0.1,0.7,0.4,1.3,1,1.7
		c1.3,0.8,2.7,1.2,4.2,1.3c4,0.6,8,1.6,11.8,3.1c2.2,0.9,4.1,2.3,5.5,4.2c1.2,1.8,1.8,3.8,1.8,5.9c0.1,2.5-0.5,5-1.8,7.2
		c-1.3,2.2-3.2,4-5.5,5.2c-3,1.3-6.3,2-9.6,2.1c-5,0.7-10.2-0.5-14.3-3.4C479.9,842.8,478,839.3,477.5,835.5z"/>
	<path class="st0" d="M531.9,804.7l12.1-2.4l5.5,29.7l19-3.6l1.9,9.7l-31.2,6L531.9,804.7z"/>
	<path class="st0" d="M568.8,818.2c-4.1-9.7,0.5-20.8,10.2-24.8c1.1-0.5,2.3-0.8,3.5-1.1c5.4-2.1,11.3-1.8,16.5,0.6
		c4.8,2.8,8.3,7.4,9.7,12.8c1.3,3.8,1.7,7.8,1.1,11.7c-0.6,3.3-2.1,6.3-4.5,8.7c-2.8,2.6-6.2,4.5-9.9,5.5c-3.6,1.3-7.5,1.7-11.4,1.3
		c-3.3-0.6-6.4-2.1-8.9-4.4C572.2,825.7,570,822.1,568.8,818.2z M580.7,814.6c0.6,3,2.3,5.7,4.7,7.7c2,1.3,4.4,1.5,6.7,0.8
		c2.3-0.6,4.2-2.2,5.1-4.3c0.8-3.2,0.6-6.6-0.7-9.6c-0.6-2.9-2.3-5.5-4.6-7.2c-2-1.2-4.5-1.5-6.7-0.7c-2.2,0.6-4.1,2.2-5,4.3
		c-1,2.9-1,6.1,0.1,9H580.7z"/>
	<path class="st0" d="M613.9,810.9l10.5-5.5c0.7,1.4,1.8,2.6,3.2,3.4c1.9,1,4.1,1,6,0c1.4-0.5,2.5-1.5,3.3-2.8c1.1-1.6,0.7-3.9-1-5
		c-0.4-0.3-0.8-0.4-1.3-0.5c-2.3-0.3-4.6-0.2-6.8,0.4c-4.1,1-8.4,1-12.6,0c-2.8-0.8-5.2-2.8-6.3-5.5c-0.8-1.9-1.1-4-0.7-6.1
		c0.4-2.3,1.5-4.5,3.2-6.2c2.4-2.4,5.3-4.2,8.4-5.5c3.7-1.9,7.8-2.6,11.9-2.1c3.5,0.8,6.4,3.1,8.1,6.3l-10.4,5.5
		c-0.8-1.3-2-2.3-3.4-2.8c-1.4-0.3-2.9-0.1-4.2,0.6c-1.1,0.4-2,1.2-2.6,2.2c-0.4,0.8-0.4,1.7,0,2.5c0.3,0.6,0.9,1.1,1.5,1.2
		c1.5,0.2,2.9,0.1,4.4-0.3c4-1,8-1.4,12.1-1.4c2.3,0,4.6,0.7,6.5,2c1.7,1.2,3.1,2.9,3.9,4.8c1,2.3,1.3,4.9,0.9,7.3
		c-0.4,2.6-1.6,5-3.4,7c-2.3,2.4-5.1,4.3-8.2,5.5c-4.4,2.5-9.6,3.3-14.6,2.2C618.7,816.7,615.7,814.2,613.9,810.9z"/>
	<path class="st0" d="M653.1,762.5l27.9-18l4.6,7.2l-17.5,11l3.5,5.5l16.2-10.4l4.4,6.8L676,775.2l4.3,6.7l18-11.6l4.9,7.7
		l-28.5,18.3L653.1,762.5z"/>
	<path class="st0" d="M699.2,764.6l8.7-8c1.1,1.2,2.5,2,4,2.4c2,0.4,4-0.2,5.5-1.5c1.2-0.8,2.1-2.1,2.4-3.5c0.5-1.9-0.7-3.9-2.6-4.4
		c-0.3-0.1-0.6-0.1-0.9-0.1c-2.3,0.3-4.4,1-6.4,2.2c-3.7,2.1-7.8,3.3-12.1,3.5c-3-0.1-5.8-1.5-7.6-3.8c-1.3-1.6-2-3.5-2.3-5.5
		c-0.2-2.3,0.3-4.7,1.5-6.7c1.7-2.9,4-5.4,6.7-7.4c3.1-2.8,6.9-4.6,11-5.1c3.6-0.1,7,1.4,9.4,4l-8.7,7.9c-1.1-1.1-2.5-1.7-4-1.8
		c-1.5,0.1-2.9,0.7-4,1.7c-1,0.7-1.6,1.6-1.9,2.8c-0.2,0.8,0,1.7,0.6,2.4c0.4,0.5,1.1,0.8,1.8,0.8c1.5-0.2,2.9-0.7,4.2-1.4
		c3.5-1.9,7.2-3.5,11-4.6c2.2-0.6,4.6-0.6,6.8,0c2,0.7,3.7,1.9,5,3.6c1.6,1.9,2.6,4.4,2.8,6.9c0.3,2.6-0.3,5.2-1.5,7.6
		c-1.6,2.9-3.8,5.4-6.5,7.4c-3.6,3.6-8.4,5.7-13.5,5.8C705,769,701.6,767.2,699.2,764.6z"/>
	<path class="st0" d="M712.2,718.9l14.6-14.6c2.4-2.8,5.7-4.5,9.4-4.9c3.4,0,6.6,1.5,8.8,4c2.7,2.4,4.2,5.8,4.1,9.3
		c-0.5,4-2.4,7.7-5.5,10.3l-4.7,4.8l10.5,10.5l-8.8,8.8L712.2,718.9z M733.1,722.2l2.2-2.2c1.4-1.1,2.3-2.7,2.7-4.5
		c0.1-1.2-0.4-2.4-1.3-3.3c-0.8-0.9-2-1.4-3.1-1.4c-1.7,0.2-3.2,1.1-4.2,2.4l-2.5,2.5L733.1,722.2z"/>
	<path class="st0" d="M738.4,692.6l20.8-25.9l6.7,5.5l-13,16l5,4l12.1-15.1l6.3,5.1l-12.1,15l6.2,5l13.4-16.5l7.1,5.5l-21.1,26.4
		L738.4,692.6z"/>
	<path class="st0" d="M795.6,653.9l8.6-7.4c2,2,3.6,4.4,4.6,7c0.9,2.4,1.1,4.9,0.8,7.4c-0.6,3-1.7,5.8-3.4,8.3
		c-1.9,3.1-4.4,5.9-7.3,8c-2.9,1.7-6.2,2.6-9.5,2.4c-4.3-0.1-8.5-1.5-12-4c-4.9-2.7-8.5-7.2-10-12.6c-1.2-9.8,3.8-19.3,12.5-23.9
		c3.6-1.4,7.6-1.5,11.4-0.4l-3.8,10.5c-0.9-0.3-1.9-0.4-2.9-0.4c-2.3,0.2-4.3,1.5-5.5,3.4c-1.5,2.1-1.7,4.9-0.6,7.3
		c3.4,4.9,8.7,8.1,14.6,8.8c4.2-0.9,7-4.9,6.3-9.1C798.5,657.1,797.3,655.3,795.6,653.9z"/>
	<path class="st0" d="M782.7,628.8l5.5-11l35.6,18.5l-5.5,11L782.7,628.8z"/>
	<path class="st0" d="M831.7,602.8l-5.5,13l5.5,4.4l-4.8,11.7l-31.3-29.3l5.2-12.5l42.8,1.4l-5,12L831.7,602.8z M822.7,601.8
		l-15-1.4l11.6,9.5L822.7,601.8z"/>
	<path class="st0" d="M806,575.6l3.5-11.9l29,8.6l5.5-18.6l9.4,2.8l-8.8,30.4L806,575.6z"/>
	<path class="st0" d="M815.5,541.9l2.6-12.1l39.2,8.2l-2.5,12.1L815.5,541.9z"/>
	<path class="st0" d="M845.8,529.6l0.8-11.7c1.6,0,3.1-0.3,4.5-1c1.8-1.1,2.9-3,3.1-5.1c0.3-1.5,0-3-0.7-4.2c-0.6-1-1.6-1.6-2.7-1.8
		c-1.1-0.1-2.1,0.2-2.9,1c-1.5,1.8-2.5,3.8-3.1,6c-1.2,4.1-3.3,7.9-6.3,11c-2.2,2-5.2,3-8.1,2.5c-2-0.3-4-1.2-5.5-2.5
		c-1.8-1.5-3-3.6-3.6-5.8c-0.8-3.3-0.9-6.7-0.3-10c0.3-4.1,1.8-8.1,4.3-11.3c2.5-2.6,6-3.9,9.6-3.6l-0.8,11.7c-1.5,0-3,0.5-4.1,1.4
		c-1,1.1-1.6,2.5-1.7,4c-0.3,1.1-0.1,2.3,0.5,3.3c0.4,0.8,1.2,1.3,2,1.4c0.7,0,1.3-0.2,1.8-0.7c0.9-1.2,1.6-2.5,2-4
		c1.2-3.8,2.9-7.5,5-11c1.2-2,3-3.5,5.1-4.5c1.9-0.9,4-1.2,6.1-0.9c2.5,0.3,4.9,1.3,6.8,3c2,1.7,3.5,4,4.2,6.5
		c0.8,3.2,1,6.5,0.4,9.8c-0.1,5.1-2,9.9-5.5,13.6C853.4,528.9,849.6,529.9,845.8,529.6z"/>
	<path class="st0" d="M823.7,490.2l0.6-37.7h9.9v12.6l30.2,0.5v12.4l-30.9-0.3v12.6L823.7,490.2z"/>
	<path class="st0" d="M855.7,426.7l1.2,14l6.8,1.4l1,12.6l-41.3-11.6l-1.1-13.5l38.6-18.4l1.1,13L855.7,426.7z M847.3,430.1l-14,5.5
		l14.7,3.1L847.3,430.1z"/>
	<path class="st0" d="M847.4,411.2l-2.8-11.4c1.5-0.4,2.9-1.3,4-2.4c1.4-1.6,1.9-3.8,1.3-5.8c-0.2-1.5-0.9-2.8-2-3.8
		c-0.8-0.7-2-1.1-3.1-0.9c-1.1,0.2-2,0.9-2.5,1.9c-0.8,2.1-1.2,4.4-1,6.7c0.1,4.3-0.7,8.5-2.5,12.4c-1.4,2.6-4,4.4-6.9,5
		c-2.1,0.4-4.2,0.2-6.1-0.6c-2.1-1-4-2.5-5.2-4.5c-1.8-2.9-2.9-6.1-3.5-9.4c-1.1-4-0.9-8.2,0.6-12.1c1.6-3.2,4.5-5.6,8-6.5l2.9,11.3
		c-1.4,0.5-2.7,1.4-3.5,2.7c-0.7,1.3-0.8,2.9-0.4,4.3c0.1,1.1,0.7,2.2,1.5,3c0.6,0.6,1.5,0.8,2.4,0.7c0.7-0.1,1.2-0.6,1.5-1.2
		c0.5-1.4,0.7-2.9,0.6-4.4c-0.1-4.1,0.4-8.2,1.3-12.1c0.5-2.2,1.7-4.3,3.4-5.8c1.5-1.4,3.5-2.4,5.5-2.8c2.5-0.5,5-0.2,7.4,0.7
		c2.4,1,4.5,2.7,6,4.9c1.8,2.8,3,5.9,3.5,9.2c1.5,4.9,1.1,10.1-1.1,14.7C854.4,408.1,851.1,410.4,847.4,411.2z"/>
</g>
</svg>
