<?xml version="1.0" encoding="utf-8"?>
<!-- Generator: Adobe Illustrator 23.0.1, SVG Export Plug-In . SVG Version: 6.00 Build 0)  -->
<svg version="1.1" id="Capa_1" xmlns="http://www.w3.org/2000/svg" xmlns:xlink="http://www.w3.org/1999/xlink" x="0px" y="0px"
	 viewBox="0 0 1080 1080" style="enable-background:new 0 0 1080 1080;" xml:space="preserve">
<g>
	<g>
		<path d="M838.6,662.6c-21-21.9-46.4-33.6-73.3-33.6c-26.7,0-52.3,11.5-74.2,33.4l-68.5,68.3c-5.6-3-11.3-5.9-16.7-8.7
			c-7.8-3.9-15.2-7.6-21.5-11.5c-64.2-40.8-122.6-93.9-178.5-162.7c-27.1-34.3-45.3-63.1-58.6-92.4c17.8-16.3,34.3-33.2,50.3-49.5
			c6.1-6.1,12.1-12.4,18.2-18.4c45.6-45.6,45.6-104.6,0-150.1l-59.2-59.2c-6.7-6.7-13.7-13.7-20.2-20.6
			c-13-13.4-26.7-27.3-40.8-40.3c-21-20.8-46.2-31.9-72.7-31.9s-52.1,11.1-73.8,31.9c-0.2,0.2-0.2,0.2-0.4,0.4L75,192.1
			C47.3,219.9,31.4,253.7,28,293c-5.2,63.3,13.4,122.3,27.8,161c35.1,94.8,87.6,182.6,165.9,276.8c95,113.4,209.3,203,339.9,266.2
			c49.9,23.6,116.5,51.6,190.9,56.4c4.6,0.2,9.3,0.4,13.7,0.4c50.1,0,92.2-18,125.2-53.8c0.2-0.4,0.7-0.7,0.9-1.1
			c11.3-13.7,24.3-26,38-39.3c9.3-8.9,18.9-18.2,28.2-28c21.5-22.3,32.8-48.4,32.8-75.1c0-26.9-11.5-52.7-33.4-74.4L838.6,662.6z
			 M916.2,891C916,891,916,891.2,916.2,891c-8.5,9.1-17.1,17.4-26.5,26.5c-14.1,13.4-28.4,27.5-41.9,43.4
			c-21.9,23.4-47.7,34.5-81.6,34.5c-3.3,0-6.7,0-10-0.2c-64.4-4.1-124.3-29.3-169.2-50.8C464.4,884.9,356.6,800.6,267,693.6
			C193,604.5,143.6,522,110.8,433.5c-20.2-54-27.5-96.1-24.3-135.8c2.2-25.4,11.9-46.4,29.9-64.4l74-74c10.6-10,21.9-15.4,33-15.4
			c13.7,0,24.7,8.2,31.7,15.2c0.2,0.2,0.4,0.4,0.7,0.7c13.2,12.4,25.8,25.2,39,38.8c6.7,6.9,13.7,13.9,20.6,21l59.2,59.2
			c23,23,23,44.3,0,67.2c-6.3,6.3-12.4,12.6-18.7,18.7c-18.2,18.7-35.6,36-54.4,52.9c-0.4,0.4-0.9,0.7-1.1,1.1
			c-18.7,18.7-15.2,36.9-11.3,49.2c0.2,0.7,0.4,1.3,0.7,2c15.4,37.3,37.1,72.5,70.1,114.3l0.2,0.2c59.9,73.8,123,131.2,192.6,175.3
			c8.9,5.6,18,10.2,26.7,14.5c7.8,3.9,15.2,7.6,21.5,11.5c0.9,0.4,1.7,1.1,2.6,1.5c7.4,3.7,14.3,5.4,21.5,5.4c18,0,29.3-11.3,33-15
			l74.2-74.2c7.4-7.4,19.1-16.3,32.8-16.3c13.4,0,24.5,8.5,31.2,15.8c0.2,0.2,0.2,0.2,0.4,0.4L916,823.1
			C938.4,845.2,938.4,868,916.2,891z"/>
		<path d="M581.7,270.4c56.8,9.5,108.5,36.4,149.7,77.7c41.2,41.2,67.9,92.8,77.7,149.7c2.4,14.3,14.8,24.3,28.8,24.3
			c1.7,0,3.3-0.2,5-0.4c16.1-2.6,26.7-17.8,24.1-33.8c-11.7-68.8-44.3-131.5-93.9-181.1s-112.4-82.2-181.1-93.9
			c-16.1-2.6-31,8-33.8,23.9C555.3,252.4,565.7,267.8,581.7,270.4z"/>
		<path d="M1052.9,479.3C1033.6,366.1,980.2,263,898.2,181S713.2,45.7,600,26.4c-15.8-2.8-30.8,8-33.6,23.9
			c-2.6,16.1,8,31,24.1,33.8c101.1,17.1,193.3,65.1,266.6,138.2c73.3,73.3,121,165.5,138.2,266.6c2.4,14.3,14.8,24.3,28.8,24.3
			c1.7,0,3.3-0.2,5-0.4C1044.9,510.3,1055.7,495.1,1052.9,479.3z"/>
	</g>
</g>
</svg>
