<?xml version="1.0" encoding="utf-8"?>
<!-- Generator: Adobe Illustrator 23.0.1, SVG Export Plug-In . SVG Version: 6.00 Build 0)  -->
<svg version="1.1" id="Capa_1" xmlns="http://www.w3.org/2000/svg" xmlns:xlink="http://www.w3.org/1999/xlink" x="0px" y="0px"
	 viewBox="0 0 512 512" style="enable-background:new 0 0 512 512;" xml:space="preserve">
<style type="text/css">
	.st0{fill:#E5646E;}
	.st1{fill:#DB4655;}
	.st2{fill:#FFE07D;}
	.st3{fill:#FFFFFF;}
	.st4{fill:#5055A0;}
	.st5{fill:#FFC269;}
	.st6{fill:none;}
</style>
<g>
	<path class="st0" d="M482.5,248.4c0,49-16.2,94.2-43.5,130.6c-20.7,27.6-47.8,50.1-79.1,65.3c-11.4,5.6-23.4,10.1-35.9,13.7H205.7
		c-12.5-3.5-24.5-8.1-35.9-13.7c-31.3-15.2-58.4-37.7-79.1-65.3c-27.3-36.4-43.5-81.6-43.5-130.6s16.2-94.2,43.5-130.6
		C130.4,65,193.6,30.8,264.8,30.8C336,30.8,399.3,65,439,117.8C466.3,154.2,482.5,199.4,482.5,248.4z"/>
	<path class="st1" d="M359.8,444.4c-11.4,5.6-23.4,10.1-35.9,13.7c-18.8,5.3-38.6,8.1-59.1,8.1c-20.5,0-40.3-2.8-59.1-8.1
		c-12.5-3.5-24.5-8.1-35.9-13.7H359.8z"/>
	<path class="st2" d="M482.5,248.4c0,49-16.2,94.2-43.5,130.6H90.7c-27.3-36.4-43.5-81.6-43.5-130.6s16.2-94.2,43.5-130.6H439
		C466.3,154.2,482.5,199.4,482.5,248.4z"/>
	<path class="st1" d="M192.7,161.4c-12,0-21.8,9.7-21.8,21.8v32.7h43.5v-32.7C214.5,171.1,204.7,161.4,192.7,161.4L192.7,161.4z"/>
	<path class="st0" d="M192.7,324.6l-54.4-65.3v-43.5c0-6,4.9-10.9,10.9-10.9h43.5l54.4,54.4v10.9
		C247.1,300.3,222.8,324.6,192.7,324.6L192.7,324.6z"/>
	<path class="st3" d="M83.9,204.9h21.8v108.8H83.9V204.9z"/>
	<circle class="st0" cx="94.8" cy="204.9" r="10.9"/>
	<circle class="st4" cx="94.8" cy="313.8" r="10.9"/>
	<path class="st3" d="M279.8,204.9h21.8v108.8h-21.8V204.9z"/>
	<circle class="st0" cx="290.7" cy="204.9" r="10.9"/>
	<circle class="st4" cx="290.7" cy="313.8" r="10.9"/>
	<path class="st3" d="M236.3,204.9h-43.5v54.4h54.4v-43.5C247.1,209.8,242.3,204.9,236.3,204.9z"/>
	<path class="st5" d="M138.3,259.3v10.9c0,30.1,24.4,54.4,54.4,54.4v-65.3H138.3z"/>
	<circle class="st4" cx="192.7" cy="259.3" r="21.8"/>
</g>
<path class="st6" d="M482.5,248.4c0,49-16.2,94.2-43.5,130.6c-20.7,27.6-47.8,50.1-79.1,65.3c-11.4,5.6-23.4,10.1-35.9,13.7
	c-18.8,5.3-38.6,8.1-59.1,8.1c-20.5,0-40.3-2.8-59.1-8.1c-12.5-3.5-24.5-8.1-35.9-13.7c-31.3-15.2-58.4-37.7-79.1-65.3
	c-27.3-36.4-43.5-81.6-43.5-130.6s16.2-94.2,43.5-130.6C130.4,65,193.6,30.8,264.8,30.8C336,30.8,399.3,65,439,117.8
	C466.3,154.2,482.5,199.4,482.5,248.4z"/>
</svg>
