<?xml version="1.0" encoding="utf-8"?>
<!-- Generator: Adobe Illustrator 23.0.1, SVG Export Plug-In . SVG Version: 6.00 Build 0)  -->
<svg version="1.1" id="Capa_1" xmlns="http://www.w3.org/2000/svg" xmlns:xlink="http://www.w3.org/1999/xlink" x="0px" y="0px"
	 viewBox="0 0 960 960" style="enable-background:new 0 0 960 960;" xml:space="preserve">
<style type="text/css">
	.st0{fill:#3C5A99;}
	.st1{fill-rule:evenodd;clip-rule:evenodd;fill:#FFFFFF;}
</style>
<g>
	
		<ellipse transform="matrix(0.7071 -0.7071 0.7071 0.7071 -199.1461 479.6585)" class="st0" cx="479.4" cy="480.2" rx="475.2" ry="475.2"/>
	<path class="st1" d="M400.7,485.6v291c0,4.2,3.4,7.6,7.6,7.6h108.1c4.2,0,7.6-3.4,7.6-7.6V480.9h78.4c3.9,0,7.2-3,7.6-6.9l7.5-89.1
		c0.4-4.4-3.1-8.2-7.6-8.2h-85.9v-63.2c0-14.8,12-26.8,26.8-26.8h60.4c4.2,0,7.6-3.4,7.6-7.6v-89.1c0-4.2-3.4-7.6-7.6-7.6h-102
		c-59.9,0-108.4,48.5-108.4,108.4v85.9h-54c-4.2,0-7.6,3.4-7.6,7.6v89.1c0,4.2,3.4,7.6,7.6,7.6h54V485.6z"/>
</g>
</svg>
