<?xml version="1.0" encoding="utf-8"?>
<!-- Generator: Adobe Illustrator 23.0.1, SVG Export Plug-In . SVG Version: 6.00 Build 0)  -->
<svg version="1.1" id="Capa_1" xmlns="http://www.w3.org/2000/svg" xmlns:xlink="http://www.w3.org/1999/xlink" x="0px" y="0px"
	 viewBox="0 0 1080 1080" style="enable-background:new 0 0 1080 1080;" xml:space="preserve">
<g>
	<g>
		<path d="M539.3,19.4c-229.8,0-416.9,187.1-416.9,416.9c0,26.2,2.4,52.6,7.4,78.3c0.2,1.5,1.1,6.1,2.8,14
			c6.3,28.1,15.7,55.8,27.9,82.2C205.5,716.6,304.2,879,521,1053c5.5,4.4,12,6.5,18.5,6.5s13.1-2.2,18.5-6.5
			c216.5-174,315.5-336.5,360.5-442.2c12.2-26.4,21.6-53.9,27.9-82.2c1.7-7.9,2.6-12.4,2.8-14c4.8-25.7,7.4-52.1,7.4-78.3
			C956.2,206.5,769.1,19.4,539.3,19.4z M890.8,504.4c0,0.4-0.2,0.9-0.2,1.3c-0.2,1.1-0.9,4.4-2,9.4c0,0.2,0,0.2,0,0.4
			c-5.5,24.4-13.5,48.2-24.2,71.1c-0.2,0.2-0.2,0.7-0.4,0.9c-40.8,96.6-130.2,244-324.7,404.7C344.8,831.5,255.4,684.1,214.6,587.5
			c-0.2-0.2-0.2-0.7-0.4-0.9c-10.5-22.7-18.5-46.7-24.2-71.1c0-0.2,0-0.2,0-0.4c-1.3-5-1.7-8.3-2-9.4c0-0.4-0.2-0.9-0.2-1.5
			c-4.4-22.5-6.5-45.1-6.5-68c0-197.3,160.7-358.1,358.1-358.1s358.1,160.7,358.1,358.1C897.4,459.3,895.2,482.2,890.8,504.4z"/>
		<path d="M539.3,176.2c-145.9,0-264.7,118.8-264.7,264.7s118.8,264.7,264.7,264.7S804,586.8,804,441S685.2,176.2,539.3,176.2z
			 M539.3,646.8c-113.6,0-205.8-92.5-205.8-205.8s92.5-205.8,205.8-205.8S745.1,327.6,745.1,441S652.9,646.8,539.3,646.8z"/>
	</g>
</g>
</svg>
