<svg id="Capa_1" data-name="Capa 1" xmlns="http://www.w3.org/2000/svg" viewBox="0 0 408 408"><defs><style>.cls-1{fill:#326fc4;}.cls-2{fill:#fff;}</style></defs><title>search</title><circle class="cls-1" cx="204" cy="204" r="204"/><path class="cls-2" d="M383.23,357.65l-50.55-50.54a12.15,12.15,0,0,0-8.61-3.55H315.8a105.41,105.41,0,1,0-18.25,18.25v8.26a12.16,12.16,0,0,0,3.55,8.62l50.54,50.54a12.11,12.11,0,0,0,17.19,0l14.34-14.34A12.23,12.23,0,0,0,383.23,357.65ZM232.66,303.56a64.89,64.89,0,1,1,64.89-64.89A64.86,64.86,0,0,1,232.66,303.56Z" transform="translate(-52 -52)"/></svg>