<svg id="Capa_1" data-name="Capa 1" xmlns="http://www.w3.org/2000/svg" viewBox="0 0 871 871"><defs><style>.cls-1{fill:#42d6ff;}.cls-2{fill:#fff;}.cls-3{fill:#3d3d3d;}.cls-4{fill:#515252;}</style></defs><title>waze</title><rect class="cls-1" width="871" height="871" rx="435.5"/><g id="g4909"><g id="g4911"><g id="g4917"><g id="g4919"><path id="path4931" class="cls-2" d="M535.11,247.56A277.72,277.72,0,0,0,402,303.85h0c-42,33.15-69,75.58-78.22,122.7h0c-2.78,14.23-4,29.78-5.2,46.24h0C313.76,537,307,576,254.57,576h0a16.12,16.12,0,0,0-14.43,8.93h0a16.14,16.14,0,0,0,1.55,16.91h0c70.91,94.08,192.58,105,277.93,105h0l6.46,0h12.46l8.78,0h0c39.87,0,81.95-1.93,119.48-15.93h0C733.45,666,789.62,610.1,809.89,548.48h0c22.87-69.55,12.24-139.93-29.91-198.19h0C733.06,285.48,652.53,245.23,569.8,245.23h0a259.38,259.38,0,0,0-34.69,2.33" transform="translate(-104.5 -84.54)"/></g></g></g></g><path id="path4943" class="cls-3" d="M569.8,229.09A276.71,276.71,0,0,0,533,231.57c-50.9,6.87-101,28.05-140.93,59.62C347,326.76,317.9,372.5,308,423.47c-3,15.15-4.22,31.9-5.45,48.11-1.91,25.37-3.89,51.6-11.95,68.74-5.52,11.71-13.75,19.51-36,19.51a32.28,32.28,0,0,0-25.76,51.7c75.24,99.83,202,111.37,290.81,111.37,2.21,0,4.4,0,6.55,0h21.15c41.39,0,85.19-2,125.12-16.93,33.26-12.41,64.94-32.5,91.59-58.08,28.83-27.67,50-60.29,61.18-94.37,12.62-38.35,15.79-76.9,9.41-114.57-6-35.22-20-68.24-41.58-98.13-24.43-33.74-57.85-61.93-96.65-81.5A282.54,282.54,0,0,0,569.8,229.09m0,32.28c145.41,0,274.84,129.81,224.76,282.07-20.17,61.33-76.35,111-133.41,132.29-37.2,13.87-80.66,14.9-113.83,14.9-5.8,0-11.29,0-16.37,0h-5c-2.1,0-4.22,0-6.37,0-83.34,0-198.44-10.17-265-98.52,91.27,0,73.26-102,85.06-162.47,18-92.16,109.17-154.14,197.64-166.09a243.06,243.06,0,0,1,32.53-2.18" transform="translate(-104.5 -84.54)"/><path id="path4955" class="cls-3" d="M477.3,713.68a64.76,64.76,0,1,1-70.07-59,64.77,64.77,0,0,1,70.07,59" transform="translate(-104.5 -84.54)"/><path id="path4967" class="cls-4" d="M431.66,718.53c0,11.58-8.13,21-18.15,21s-18.14-9.39-18.14-21,8.13-21,18.14-21,18.15,9.39,18.15,21" transform="translate(-104.5 -84.54)"/><path id="path4979" class="cls-3" d="M699.4,713.68a64.76,64.76,0,1,1-70.07-59,64.76,64.76,0,0,1,70.07,59" transform="translate(-104.5 -84.54)"/><path id="path4991" class="cls-4" d="M653.76,718.53c0,11.58-8.13,21-18.14,21s-18.15-9.39-18.15-21,8.12-21,18.15-21,18.14,9.39,18.14,21" transform="translate(-104.5 -84.54)"/><path id="path5003" class="cls-3" d="M515.38,422.12a31,31,0,1,1-31-31,31,31,0,0,1,31,31" transform="translate(-104.5 -84.54)"/><path id="path5015" class="cls-3" d="M663.39,417.28a31,31,0,1,1-31-31,31,31,0,0,1,31,31" transform="translate(-104.5 -84.54)"/><path id="path5027" class="cls-3" d="M558.85,588.29a119,119,0,0,1-72.5-24.35c-20.78-16-34.19-38.13-36.78-60.67a16.14,16.14,0,1,1,32.06-3.69c3.94,34.38,45,57.33,79.58,56.4,44-1.15,73.14-27.49,79.12-52.9a16.13,16.13,0,1,1,31.41,7.39c-4.87,20.74-18.24,40-37.63,54.14-20.18,14.75-45.11,22.93-72.05,23.64-1.07,0-2.14,0-3.21,0" transform="translate(-104.5 -84.54)"/></svg>