<?xml version="1.0" encoding="utf-8"?>
<!-- Generator: Adobe Illustrator 23.0.1, SVG Export Plug-In . SVG Version: 6.00 Build 0)  -->
<svg version="1.1" id="Capa_1" xmlns="http://www.w3.org/2000/svg" xmlns:xlink="http://www.w3.org/1999/xlink" x="0px" y="0px"
	 viewBox="0 0 960 960" style="enable-background:new 0 0 960 960;" xml:space="preserve">
<style type="text/css">
	.st0{fill:#60FC7C;}
	.st1{fill-rule:evenodd;clip-rule:evenodd;fill:#FFFFFF;}
</style>
<g>
	
		<ellipse transform="matrix(0.7071 -0.7071 0.7071 0.7071 -198.9405 479.7147)" class="st0" cx="479.6" cy="480" rx="473.5" ry="473.5"/>
	<g>
		<path class="st1" d="M479.6,177.9C313,177.9,177.5,313.4,177.5,480c0,58.6,16.6,114.9,48.3,163.7l-45.9,101.1
			c-4.2,9.3-2.7,20.2,4,28c5.1,6,12.5,9.3,20.1,9.3c2.3,0,4.7-0.3,7-0.9l126.5-34.7c43.7,23.3,92.6,35.6,142.3,35.6
			c166.6,0,302.1-135.5,302.1-302.1C781.7,313.4,646.2,177.9,479.6,177.9z M479.6,729.4c-44.1,0-87.5-11.7-125.6-34
			c-4.1-2.4-8.7-3.6-13.3-3.6c-2.3,0-4.7,0.3-7,0.9l-82.6,22.7l28.8-63.4c3.9-8.6,2.9-18.7-2.6-26.3c-30.8-42.7-47-93-47-145.7
			c0-137.5,111.9-249.4,249.4-249.4c137.5,0,249.4,111.9,249.4,249.4C728.9,617.5,617.1,729.4,479.6,729.4z"/>
		<path class="st1" d="M595.7,525.2c-12.7-7.6-29.1-16-44-9.9c-11.4,4.7-18.7,22.6-26.1,31.7c-3.8,4.7-8.3,5.4-14.2,3.1
			c-42.9-17.1-75.8-45.8-99.5-85.2c-4-6.1-3.3-11,1.5-16.7c7.2-8.4,16.1-18,18.1-29.3c1.9-11.4-3.4-24.6-8.1-34.7
			c-6-12.9-12.7-31.3-25.6-38.6c-11.9-6.7-27.6-3-38.2,5.7c-18.3,14.9-27.1,38.2-26.9,61.4c0.1,6.6,0.9,13.1,2.4,19.5
			c3.7,15.3,10.7,29.5,18.7,43.1c6,10.2,12.5,20.1,19.5,29.7c23,31.2,51.5,58.3,84.6,78.5c16.5,10.1,34.3,19,52.8,25.1
			c20.7,6.8,39.1,13.9,61.4,9.7c23.4-4.4,46.4-18.9,55.7-41.4c2.7-6.7,4.1-14.1,2.6-21.1C627.2,540.9,607.5,532.3,595.7,525.2z"/>
	</g>
</g>
</svg>
