<?xml version="1.0" encoding="utf-8"?>
<!-- Generator: Adobe Illustrator 23.0.1, SVG Export Plug-In . SVG Version: 6.00 Build 0)  -->
<svg version="1.1" id="Capa_1" xmlns="http://www.w3.org/2000/svg" xmlns:xlink="http://www.w3.org/1999/xlink" x="0px" y="0px"
	 viewBox="0 0 512 512" style="enable-background:new 0 0 512 512;" xml:space="preserve">
<style type="text/css">
	.st0{fill:#D80027;}
	.st1{fill:#2E52B2;}
	.st2{fill:#F0F0F0;}
	.st3{fill:#FFFFFF;}
	.st4{fill:none;}
</style>
<g>
	<g>
		<path class="st0" d="M419.5,140.1H42c11-19,24.8-36.2,40.8-51c0,0,0.1-0.1,0.1-0.1c0.6-0.6,1.2-1.1,1.8-1.6
			c0.6-0.6,1.3-1.1,1.9-1.7h288.2c9.7,8.5,18.6,17.8,26.6,27.9c0,0,0,0,0,0c1.1,1.4,2.3,2.9,3.4,4.3c0.9,1.2,1.8,2.4,2.7,3.7
			c0.9,1.2,1.7,2.4,2.5,3.6C413.4,130.1,416.5,135,419.5,140.1z"/>
		<path class="st0" d="M448.6,249H12.8c0-7.1,0.3-14.1,1-20.9c0,0,0,0,0-0.1c0.6-6.1,1.4-12.2,2.5-18.1c0.5-2.7,1-5.4,1.6-8
			c0.5-2.5,1.1-4.9,1.7-7.3h422c3.7,14.1,6,28.8,6.8,43.9c0.1,1.3,0.1,2.6,0.2,3.9c0,0.9,0,1.7,0.1,2.6
			C448.6,246.4,448.6,247.7,448.6,249z"/>
		<path class="st0" d="M441.8,303.5c-5,19.3-12.5,37.6-22.3,54.5H42c-9.8-16.9-17.3-35.1-22.3-54.5H441.8z"/>
		<path class="st0" d="M374.9,412.5c-31,27.3-69.9,46.1-112.7,52.3c-2.3,0.3-4.6,0.6-6.9,0.9c-0.8,0.1-1.5,0.2-2.3,0.3
			c-3.1,0.3-6.2,0.6-9.3,0.8c-0.8,0-1.6,0.1-2.4,0.1c-0.5,0-1,0-1.5,0.1c-0.1,0-0.2,0-0.3,0c-0.5,0-1,0-1.5,0c-0.6,0-1.1,0-1.7,0
			c-0.5,0-1.1,0-1.6,0c-0.2,0-0.3,0-0.5,0c-0.2,0-0.3,0-0.5,0h-5.6c-1.7,0-3.3-0.1-5-0.1h0c-1.7-0.1-3.3-0.1-5-0.2
			c-1-0.1-2-0.1-2.9-0.2c-0.7,0-1.4-0.1-2.1-0.2c-1.7-0.1-3.3-0.3-5-0.5c-0.8-0.1-1.6-0.2-2.5-0.3c-0.8-0.1-1.7-0.2-2.5-0.3
			c-0.8-0.1-1.6-0.2-2.5-0.3c-1-0.1-1.9-0.3-2.8-0.4c-0.7-0.1-1.4-0.2-2-0.3c-1.6-0.3-3.2-0.5-4.8-0.8c-0.1,0-0.1,0-0.2,0
			c-1.6-0.3-3.1-0.6-4.7-0.9c-0.8-0.2-1.6-0.3-2.4-0.5c-1.6-0.4-3.2-0.7-4.8-1.1c-0.8-0.2-1.6-0.4-2.4-0.6c-0.8-0.2-1.6-0.4-2.3-0.6
			c-0.8-0.2-1.6-0.4-2.4-0.6c-0.5-0.1-1-0.3-1.5-0.4c-0.5-0.1-1-0.3-1.5-0.4c-0.5-0.2-1.1-0.3-1.6-0.5
			c-30.1-9.2-57.4-24.7-80.4-45.1H374.9z"/>
	</g>
	<path class="st1" d="M298.9,42.1v223.7H13.5c-0.4-5.5-0.6-11.1-0.6-16.8c0-7.1,0.3-14.1,1-20.9c0,0,0,0,0-0.1v0c0-0.1,0-0.3,0-0.4
		c0,0,0,0,0,0c0.6-5.9,1.4-11.8,2.4-17.6c0,0,0,0,0-0.1c0.5-2.7,1-5.4,1.6-8c0.5-2.5,1.1-4.9,1.7-7.3c2.9-11.2,6.6-22.1,11.2-32.5
		c2.8-6.4,5.8-12.6,9.2-18.6c0.6-1.1,1.3-2.3,1.9-3.4c11-19,24.8-36.2,40.8-51c0,0,0.1-0.1,0.1-0.1c0.6-0.6,1.2-1.1,1.8-1.6
		c0.6-0.6,1.3-1.1,1.9-1.7c0,0,0.1-0.1,0.1-0.1c0.1-0.1,0.1-0.1,0.2-0.2c0.1-0.1,0.2-0.2,0.4-0.3c0,0,0.1-0.1,0.1-0.1
		c3.1-2.7,6.2-5.3,9.5-7.8c0,0,0.1,0,0.1-0.1c1.4-1.1,2.8-2.1,4.2-3.2c0,0,0.1,0,0.1-0.1c36.2-26.8,80.9-42.6,129.5-42.6
		c10.4,0,20.6,0.7,30.7,2.1c0.8,0.1,1.6,0.2,2.4,0.3c1.6,0.3,3.2,0.5,4.8,0.8c0,0,0,0,0,0c0.8,0.1,1.6,0.3,2.4,0.4
		c0.5,0.1,1,0.2,1.5,0.3c0.1,0,0.3,0.1,0.4,0.1c0.9,0.2,1.9,0.4,2.8,0.6c0.3,0.1,0.7,0.1,1,0.2c0.9,0.2,1.7,0.4,2.6,0.6
		c1.3,0.3,2.7,0.6,4,1c0.5,0.1,1,0.3,1.5,0.4c1,0.3,2,0.5,2.9,0.8c1.3,0.3,2.5,0.7,3.7,1.1c1.2,0.4,2.5,0.7,3.7,1.1
		C296.5,41.3,297.7,41.7,298.9,42.1z"/>
	<g>
		<polygon class="st2" points="99.6,127.3 94.3,143.5 77.3,143.5 91,153.5 85.8,169.7 99.6,159.7 113.3,169.7 108.1,153.5 
			121.8,143.5 104.8,143.5 		"/>
		<polygon class="st2" points="104.8,201.9 99.6,185.7 94.3,201.9 77.3,201.9 91,211.9 85.8,228.1 99.6,218.1 113.3,228.1 
			108.1,211.9 121.8,201.9 		"/>
		<path class="st2" d="M36.1,211.9l5.3,16.2l-13.8-10l-13.8,10c0,0,0,0,0-0.1l0,0l5.2-16.1l-2.7-2c0.5-2.7,1-5.4,1.6-8h4.4l2.4-7.3
			l2.9-8.8l2.9,8.8l2.4,7.3h17L36.1,211.9z"/>
		<path class="st2" d="M36.1,153.5l5.3,16.2l-10.5-7.6c2.8-6.4,5.8-12.6,9.2-18.6h9.8L36.1,153.5z"/>
		<path class="st2" d="M121.1,85.6l-13,9.4l5.3,16.2l-13.8-10l-13.8,10L91.1,95l-8.2-6c1.3-1.2,2.5-2.3,3.8-3.4
			c0.2-0.2,0.4-0.4,0.7-0.6h7l2.6-7.9l0,0c1.4-1.1,2.9-2.2,4.3-3.3l3.6,11.2h17L121.1,85.6z"/>
		<polygon class="st2" points="171.5,127.3 166.2,143.5 149.2,143.5 163,153.5 157.7,169.7 171.5,159.7 185.3,169.7 180,153.5 
			193.8,143.5 176.8,143.5 		"/>
		<polygon class="st2" points="176.8,201.9 171.5,185.7 166.2,201.9 149.2,201.9 163,211.9 157.7,228.1 171.5,218.1 185.3,228.1 
			180,211.9 193.8,201.9 		"/>
		<polygon class="st2" points="248.7,201.9 243.5,185.7 238.2,201.9 221.2,201.9 234.9,211.9 229.7,228.1 243.5,218.1 257.2,228.1 
			252,211.9 265.7,201.9 		"/>
		<polygon class="st2" points="243.5,127.3 238.2,143.5 221.2,143.5 234.9,153.5 229.7,169.7 243.5,159.7 257.2,169.7 252,153.5 
			265.7,143.5 248.7,143.5 		"/>
		<polygon class="st2" points="171.5,68.9 166.2,85.1 149.2,85.1 163,95.1 157.7,111.2 171.5,101.2 185.3,111.2 180,95.1 
			193.8,85.1 176.8,85.1 		"/>
		<polygon class="st2" points="243.5,68.9 238.2,85.1 221.2,85.1 234.9,95.1 229.7,111.2 243.5,101.2 257.2,111.2 252,95.1 
			265.7,85.1 248.7,85.1 		"/>
	</g>
	<path class="st3" d="M404.8,118c-8.9-11.8-18.9-22.6-30-32.3h-75.9V42.1c-12-4-24.6-6.9-37.4-8.8c12.9,1.8,25.5,4.8,37.5,8.8
		c28.3,9.3,54.1,24.3,75.9,43.6C385.9,95.4,396,106.2,404.8,118z"/>
	<path class="st3" d="M448.3,238.5c-0.7-15.1-3-29.8-6.8-43.9H298.9v-54.5h120.5c0,0,0,0.1,0.1,0.1c9.8,16.9,17.3,35.1,22.3,54.5
		C445.4,208.8,447.6,223.4,448.3,238.5z"/>
	<path class="st3" d="M448.6,249c0,18.8-2.4,37.1-6.9,54.5h-422c-3.1-12.2-5.2-24.8-6.2-37.7h285.4V249H448.6z"/>
	<path class="st4" d="M298.9,265.8H13.5c-0.4-5.5-0.6-11.1-0.6-16.8c0-7.1,0.3-14.1,1-20.9c0,0,0,0,0-0.1v0c0-0.1,0-0.3,0-0.4
		c0,0,0,0,0,0c0.6-5.9,1.4-11.8,2.4-17.6c0,0,0,0,0-0.1c0.5-2.7,1-5.4,1.6-8c0.5-2.5,1.1-4.9,1.7-7.3c2.9-11.2,6.6-22.1,11.2-32.5
		c2.8-6.4,5.8-12.6,9.2-18.6c0.6-1.1,1.3-2.3,1.9-3.4c11-19,24.8-36.2,40.8-51c0,0,0.1-0.1,0.1-0.1c0.6-0.6,1.2-1.1,1.8-1.6
		c0.6-0.6,1.3-1.1,1.9-1.7c0,0,0.1-0.1,0.1-0.1c0.1-0.1,0.1-0.1,0.2-0.2c0.1-0.1,0.2-0.2,0.4-0.3c0,0,0.1-0.1,0.1-0.1
		c3.1-2.7,6.2-5.3,9.5-7.8c0,0,0.1,0,0.1-0.1c1.4-1.1,2.8-2.1,4.2-3.2c0,0,0.1,0,0.1-0.1c36.2-26.8,80.9-42.6,129.5-42.6
		c10.4,0,20.6,0.7,30.7,2.1c0.8,0.1,1.6,0.2,2.4,0.3c1.6,0.3,3.2,0.5,4.8,0.8c0,0,0,0,0,0c0.8,0.1,1.6,0.3,2.4,0.4
		c0.5,0.1,1,0.2,1.5,0.3c0.1,0,0.3,0.1,0.4,0.1c0.9,0.2,1.9,0.4,2.8,0.6c0.3,0.1,0.7,0.1,1,0.2c0.9,0.2,1.7,0.4,2.6,0.6
		c1.3,0.3,2.7,0.6,4,1c0.5,0.1,1,0.3,1.5,0.4c1,0.3,2,0.5,2.9,0.8c1.3,0.3,2.5,0.7,3.7,1.1c1.2,0.4,2.5,0.7,3.7,1.1
		c1.2,0.4,2.5,0.8,3.7,1.2v43.6h75.9c1.2,1.1,2.4,2.1,3.6,3.2c0.5,0.4,1,0.9,1.4,1.3c0.8,0.7,1.6,1.5,2.4,2.3c0.5,0.5,1,0.9,1.4,1.4
		c0.6,0.6,1.1,1.1,1.7,1.7c1.1,1.1,2.3,2.3,3.4,3.5c0.6,0.7,1.3,1.3,1.9,2c1.3,1.4,2.5,2.7,3.7,4.1c0.5,0.5,1,1.1,1.4,1.6
		c0.5,0.6,1,1.1,1.5,1.7c0.2,0.3,0.5,0.6,0.7,0.9c0.2,0.2,0.3,0.4,0.5,0.5c0,0,0,0,0,0c0.4,0.5,0.9,1.1,1.3,1.6
		c0.1,0.1,0.2,0.2,0.2,0.3c0.5,0.6,1,1.3,1.5,1.9c0,0,0,0,0,0c1.1,1.4,2.3,2.9,3.4,4.3c0.9,1.2,1.8,2.4,2.7,3.7
		c0.9,1.2,1.7,2.4,2.5,3.6c3.3,4.8,6.5,9.8,9.4,14.9H298.9v54.5h142.7c3.7,14.1,6,28.8,6.8,43.9c0.1,1.3,0.1,2.6,0.2,3.9
		c0,0.9,0,1.7,0.1,2.6c0,1.3,0,2.6,0,4H298.9V265.8z"/>
	<path class="st3" d="M419.4,358c-11.8,20.5-27,38.9-44.6,54.5H86.7c23,20.4,50.3,35.9,80.4,45.1c-30.1-9.1-57.5-24.7-80.5-45.1
		c-17.7-15.6-32.8-34-44.6-54.5H419.4z"/>
	<path class="st4" d="M86.7,412.5h288.1c-31,27.3-69.8,46-112.6,52.3c-2.3,0.3-4.6,0.6-6.9,0.9c-0.8,0.1-1.5,0.2-2.3,0.3
		c-3.1,0.3-6.2,0.6-9.3,0.8c-0.8,0-1.6,0.1-2.4,0.1c-0.5,0-1,0-1.5,0.1c-0.1,0-0.2,0-0.3,0c-0.5,0-1,0-1.5,0c-0.6,0-1.1,0-1.7,0
		c-0.5,0-1.1,0-1.6,0c-0.2,0-0.3,0-0.5,0c-0.2,0-0.3,0-0.5,0h-5.6c-1.7,0-3.3-0.1-5-0.1h0c-1.7-0.1-3.3-0.1-5-0.2
		c-1-0.1-2-0.1-2.9-0.2c-0.7,0-1.4-0.1-2.1-0.2c-1.7-0.1-3.3-0.3-5-0.5c-0.8-0.1-1.6-0.2-2.5-0.3c-0.8-0.1-1.7-0.2-2.5-0.3
		c-0.8-0.1-1.6-0.2-2.5-0.3c-1-0.1-1.9-0.3-2.8-0.4c-0.7-0.1-1.4-0.2-2-0.3c-1.6-0.3-3.2-0.5-4.8-0.8c-0.1,0-0.1,0-0.2,0
		c-1.6-0.3-3.1-0.6-4.7-0.9c-0.8-0.2-1.6-0.3-2.4-0.5c-1.6-0.4-3.2-0.7-4.8-1.1c-0.8-0.2-1.6-0.4-2.4-0.6c-0.8-0.2-1.6-0.4-2.3-0.6
		c-0.8-0.2-1.6-0.4-2.4-0.6c-0.5-0.1-1-0.3-1.5-0.4c-0.5-0.1-1-0.3-1.5-0.4c-0.5-0.2-1.1-0.3-1.6-0.5
		C137,448.4,109.7,432.9,86.7,412.5z"/>
	<path class="st4" d="M441.7,303.5c-5,19.3-12.5,37.6-22.3,54.5H42c-9.8-16.9-17.3-35.1-22.3-54.5H441.7z"/>
</g>
</svg>
