<svg id="Layer_1" data-name="Layer 1" xmlns="http://www.w3.org/2000/svg" viewBox="0 0 401.09 268.48"><defs><style>.cls-1{fill:#1c355e;}.cls-2{fill:#d02c2f;}.cls-3{fill:#fff;}</style></defs><circle class="cls-1" cx="166.31" cy="41.36" r="10.33"/><circle class="cls-1" cx="193.83" cy="34.81" r="10.33"/><circle class="cls-1" cx="144.34" cy="58.38" r="10.33"/><circle class="cls-1" cx="132.23" cy="82.73" r="10.33"/><path class="cls-1" d="M217,30.87a10.32,10.32,0,1,0,14.74,10.39A113.14,113.14,0,0,0,217,30.87Z"/><path class="cls-1" d="M239.48,49.48A10.32,10.32,0,0,0,249,67.79,68.77,68.77,0,0,0,239.48,49.48Z"/><path class="cls-1" d="M137.72,102.69a10.33,10.33,0,1,0-.16,16.79A65.19,65.19,0,0,1,137.72,102.69Z"/><path class="cls-1" d="M139.38,128.67a10.33,10.33,0,1,0,8.79,18.64A61.45,61.45,0,0,1,139.38,128.67Z"/><polygon class="cls-2" points="331.05 257.44 59.29 257.44 69.05 224.1 340.81 224.1 331.05 257.44"/><path class="cls-1" d="M12.38,188.76H24.12l4.52,17.57,4.49-17.57H44.86v28.87H37.55v-22l-5.63,22H25.31l-5.62-22v22H12.38Z"/><path class="cls-1" d="M69.34,188.76h8.9V206a14.58,14.58,0,0,1-.8,4.84,10.34,10.34,0,0,1-2.5,4,10.14,10.14,0,0,1-3.57,2.39,18.12,18.12,0,0,1-6.25,1,38.87,38.87,0,0,1-4.6-.3,12.19,12.19,0,0,1-4.16-1.17,10.18,10.18,0,0,1-3.06-2.49,9,9,0,0,1-1.9-3.33,17.24,17.24,0,0,1-.83-4.88v-17.2h8.9v17.61a5,5,0,0,0,1.31,3.69,5.64,5.64,0,0,0,7.25,0,5,5,0,0,0,1.31-3.71Z"/><path class="cls-1" d="M84.15,188.76h8.92v21.76H107v7.11H84.15Z"/><path class="cls-1" d="M107,188.76h27.12v7.13H125v21.74h-8.92V195.89H107Z"/><path class="cls-1" d="M138.48,188.76h8.94v28.87h-8.94Z"/><path class="cls-1" d="M153.88,188.76h8.33l10.87,16v-16h8.41v28.87h-8.41l-10.81-15.85v15.85h-8.39Z"/><path class="cls-1" d="M187.4,188.76h23.91v6.17h-15v4.59h13.88v5.88H196.34v5.7h15.4v6.53H187.4Z"/><path class="cls-1" d="M231.06,207.18v-6h13.78v12.31a28.17,28.17,0,0,1-7,3.67,23.74,23.74,0,0,1-7.22,1,17.47,17.47,0,0,1-8.37-1.76,11.93,11.93,0,0,1-5-5.22,17.11,17.11,0,0,1-1.78-8,16.6,16.6,0,0,1,1.95-8.22,12.63,12.63,0,0,1,5.71-5.31,18.64,18.64,0,0,1,7.9-1.4,22.15,22.15,0,0,1,7.16.87,9.23,9.23,0,0,1,3.94,2.69,12,12,0,0,1,2.35,4.61L235.84,198a4.62,4.62,0,0,0-1.8-2.5,5.63,5.63,0,0,0-3.24-.87,5.86,5.86,0,0,0-4.68,2q-1.74,2-1.74,6.45,0,4.69,1.76,6.7a6.21,6.21,0,0,0,4.92,2,9.28,9.28,0,0,0,2.85-.43,15,15,0,0,0,3.11-1.48v-2.71Z"/><path class="cls-1" d="M249,203.22q0-7.07,3.94-11t11-3.94q7.2,0,11.1,3.87t3.9,10.84a17.83,17.83,0,0,1-1.7,8.3,12.15,12.15,0,0,1-4.93,5,16.13,16.13,0,0,1-8,1.81,18.38,18.38,0,0,1-8.08-1.56,12.14,12.14,0,0,1-5.19-4.92A16.34,16.34,0,0,1,249,203.22Zm8.92,0c0,2.91.54,5,1.62,6.28a6.15,6.15,0,0,0,8.87,0q1.57-1.87,1.58-6.72c0-2.71-.55-4.7-1.64-6A5.62,5.62,0,0,0,263.9,195a5.41,5.41,0,0,0-4.33,1.91Q257.94,198.85,257.94,203.26Z"/><path class="cls-1" d="M303,205.82l7.81,2.36a14.32,14.32,0,0,1-2.48,5.49,10.63,10.63,0,0,1-4.2,3.33,15.73,15.73,0,0,1-6.39,1.13,18.58,18.58,0,0,1-7.69-1.37,12.18,12.18,0,0,1-5.15-4.81,16.28,16.28,0,0,1-2.17-8.82q0-7.17,3.81-11t10.79-3.85q5.44,0,8.57,2.21a12.93,12.93,0,0,1,4.64,6.77L302.62,199a6.41,6.41,0,0,0-.87-1.93,5,5,0,0,0-1.83-1.57,5.64,5.64,0,0,0-7.07,1.89c-.81,1.2-1.22,3.1-1.22,5.68q0,4.8,1.46,6.58a5.75,5.75,0,0,0,8,.34A9,9,0,0,0,303,205.82Z"/><path class="cls-1" d="M315.46,188.76h8.94v28.87h-8.94Z"/><path class="cls-1" d="M329.68,203.22q0-7.07,3.94-11t11-3.94c4.8,0,8.51,1.29,11.1,3.87s3.9,6.19,3.9,10.84a17.7,17.7,0,0,1-1.7,8.3,12.19,12.19,0,0,1-4.92,5,16.17,16.17,0,0,1-8,1.81,18.41,18.41,0,0,1-8.08-1.56,12.2,12.2,0,0,1-5.19-4.92A16.34,16.34,0,0,1,329.68,203.22Zm8.92,0c0,2.91.54,5,1.63,6.28a6.15,6.15,0,0,0,8.87,0q1.57-1.87,1.57-6.72c0-2.71-.55-4.7-1.64-6a5.62,5.62,0,0,0-4.46-1.88,5.41,5.41,0,0,0-4.34,1.91C339.15,198.21,338.6,200.32,338.6,203.26Z"/><path class="cls-1" d="M362.84,208.08l8.49-.53a6.47,6.47,0,0,0,1.12,3.15,4.71,4.71,0,0,0,3.94,1.75,4.37,4.37,0,0,0,2.95-.89,2.68,2.68,0,0,0,1-2.08,2.64,2.64,0,0,0-1-2q-1-.89-4.56-1.67-5.88-1.32-8.37-3.51a7,7,0,0,1-2.52-5.57,7.56,7.56,0,0,1,1.29-4.2,8.58,8.58,0,0,1,3.88-3.12,18.16,18.16,0,0,1,7.09-1.13c3.69,0,6.51.69,8.44,2.06s3.09,3.55,3.46,6.55l-8.41.49a3.92,3.92,0,0,0-4.37-3.72,3.6,3.6,0,0,0-2.35.66,2,2,0,0,0-.78,1.6,1.57,1.57,0,0,0,.65,1.24,7.34,7.34,0,0,0,3,1.07,37.48,37.48,0,0,1,8.38,2.55,8.69,8.69,0,0,1,3.68,3.2,8.06,8.06,0,0,1,1.15,4.27,9.18,9.18,0,0,1-1.53,5.12,9.72,9.72,0,0,1-4.29,3.56,17.52,17.52,0,0,1-7,1.21q-7.37,0-10.2-2.84A11.18,11.18,0,0,1,362.84,208.08Z"/><path class="cls-3" d="M95.15,244l1.36-5.26h12.07l-2.78,10.78a33.78,33.78,0,0,1-7,3.22,23,23,0,0,1-6.54.85,13,13,0,0,1-6.94-1.54,7.27,7.27,0,0,1-3.22-4.57,13.91,13.91,0,0,1,.24-7,18.46,18.46,0,0,1,3.57-7.2,16,16,0,0,1,6.2-4.65,18.68,18.68,0,0,1,7.23-1.22,17.52,17.52,0,0,1,6.08.76,5.67,5.67,0,0,1,2.84,2.35,8,8,0,0,1,1,4.05L101.42,236a3,3,0,0,0-1-2.19,4,4,0,0,0-2.64-.76,6.61,6.61,0,0,0-4.56,1.79,11.15,11.15,0,0,0-3,5.65c-.71,2.73-.7,4.69,0,5.86a4.16,4.16,0,0,0,3.85,1.76,9.3,9.3,0,0,0,2.6-.38,17.59,17.59,0,0,0,3.06-1.29l.61-2.38Z"/><path class="cls-3" d="M116,227.89h21l-1.4,5.4H122.45l-1,4h12.16l-1.33,5.15H120.08l-1.29,5h13.49l-1.48,5.73H109.48Z"/><path class="cls-3" d="M141.6,227.89h7.29l5.91,14,3.62-14h7.36l-6.53,25.29h-7.37L146,239.29l-3.59,13.89h-7.35Z"/><path class="cls-3" d="M171,227.89H191.9l-1.39,5.4H177.4l-1,4h12.16l-1.33,5.15H175l-1.28,5h13.49l-1.48,5.73H164.43Z"/><path class="cls-3" d="M190.06,253.18l6.53-25.29h13a17.43,17.43,0,0,1,5.38.62,4.08,4.08,0,0,1,2.49,2.3,6.21,6.21,0,0,1,.11,4.1,9,9,0,0,1-1.83,3.63,10.33,10.33,0,0,1-3.11,2.48,12.34,12.34,0,0,1-3,1,5.77,5.77,0,0,1,1.79.93,5.53,5.53,0,0,1,.91,1.33,7.25,7.25,0,0,1,.69,1.57l1.89,7.33h-8.83l-2.19-7.73a4.29,4.29,0,0,0-.9-1.95,2.68,2.68,0,0,0-1.77-.59h-.69l-2.65,10.27Zm11.74-15h3.29a13.35,13.35,0,0,0,2.16-.35,2.84,2.84,0,0,0,1.47-.79,3.1,3.1,0,0,0,.87-1.47,1.91,1.91,0,0,0-.29-1.88c-.4-.44-1.32-.66-2.74-.66h-3.44Z"/><path class="cls-3" d="M234.06,249h-8.87l-2.31,4.18h-8l16-25.29h8.52l3,25.29h-8.19Zm-.21-5.46-.44-9.1-5.11,9.1Z"/><path class="cls-3" d="M251.45,227.89h7.81L254.34,247h12.2l-1.61,6.23h-20Z"/><path class="cls-3" d="M275,227.89h20.94l-1.39,5.4H281.44l-1,4h12.16l-1.33,5.15H279.06l-1.28,5h13.49l-1.48,5.73H268.47Z"/><path class="cls-3" d="M294.79,244.81l7.56-.46a4.83,4.83,0,0,0,.27,2.76,3.13,3.13,0,0,0,3.05,1.53,4.74,4.74,0,0,0,2.79-.78,3.32,3.32,0,0,0,1.37-1.82,1.83,1.83,0,0,0-.41-1.76c-.44-.52-1.65-1-3.62-1.47q-4.85-1.16-6.54-3.07a5,5,0,0,1-.95-4.88,8.73,8.73,0,0,1,2.08-3.68,10.81,10.81,0,0,1,4.11-2.73,17.92,17.92,0,0,1,6.47-1c3.24,0,5.54.6,6.93,1.8s1.9,3.11,1.55,5.74l-7.48.43a3.13,3.13,0,0,0-.59-2.49,3.23,3.23,0,0,0-2.4-.77,3.77,3.77,0,0,0-2.2.58,2.41,2.41,0,0,0-1,1.4,1.11,1.11,0,0,0,.28,1.09,5.07,5.07,0,0,0,2.39.93,26.46,26.46,0,0,1,6.76,2.23,5.32,5.32,0,0,1,2.5,2.81,6.32,6.32,0,0,1,0,3.74,10.46,10.46,0,0,1-2.5,4.48,12.14,12.14,0,0,1-4.56,3.12,17.31,17.31,0,0,1-6.37,1.06c-4.3,0-7.07-.83-8.29-2.48A7.94,7.94,0,0,1,294.79,244.81Z"/><circle class="cls-1" cx="194.86" cy="99.35" r="45.8"/><path class="cls-1" d="M194.86,14.28c-47.25,0-85.55,38.09-85.55,85.07s38.3,85.06,85.55,85.06,85.54-38.08,85.54-85.06S242.1,14.28,194.86,14.28Zm0,158.54a73.47,73.47,0,1,1,73.46-73.47A73.47,73.47,0,0,1,194.86,172.82Z"/><path class="cls-3" d="M149,78.17h17.32L173,104.1l6.63-25.93H197v42.62H186.17V88.28l-8.31,32.51H168.1l-8.3-32.51v32.51H149Z"/><path class="cls-3" d="M222.32,105.35V96.48h20.35v18.17a41.54,41.54,0,0,1-10.34,5.42,35,35,0,0,1-10.65,1.44q-7.59,0-12.37-2.59a17.64,17.64,0,0,1-7.41-7.7,25.23,25.23,0,0,1-2.64-11.74,24.52,24.52,0,0,1,2.88-12.14,18.7,18.7,0,0,1,8.43-7.84q4.34-2.06,11.66-2.06,7.07,0,10.57,1.28a13.74,13.74,0,0,1,5.81,4,17.5,17.5,0,0,1,3.47,6.82l-12.7,2.26a6.92,6.92,0,0,0-2.66-3.69,8.32,8.32,0,0,0-4.78-1.28,8.59,8.59,0,0,0-6.9,3q-2.58,3-2.58,9.52,0,6.93,2.6,9.89a9.18,9.18,0,0,0,7.26,3,13.63,13.63,0,0,0,4.21-.64,22.37,22.37,0,0,0,4.6-2.18v-4Z"/><path class="cls-1" d="M194.86,43.44a55.91,55.91,0,1,0,55.91,55.91A55.92,55.92,0,0,0,194.86,43.44Zm0,105.17a49.27,49.27,0,1,1,49.26-49.26A49.26,49.26,0,0,1,194.86,148.61Z"/><path class="cls-1" d="M196,22.37s69.39,20,53.13,88.66c0,0,22.88-46.46-29.87-82.13C219.3,28.9,206.94,21.87,196,22.37Z"/><path class="cls-1" d="M193.83,178.13s-69.39-20-53.12-88.65c0,0-22.88,46.46,29.86,82.12C170.57,171.6,182.93,178.64,193.83,178.13Z"/><path class="cls-2" d="M162.43,155.2l2,.83a1.53,1.53,0,0,0-.1.84,1.18,1.18,0,0,0,.69.83,1,1,0,0,0,.76.13.67.67,0,0,0,.47-.35.71.71,0,0,0,0-.57,2.84,2.84,0,0,0-.84-.88,5,5,0,0,1-1.5-1.73,1.77,1.77,0,0,1,.06-1.54,1.91,1.91,0,0,1,.76-.81,2.1,2.1,0,0,1,1.22-.26,4.62,4.62,0,0,1,1.73.53,3.72,3.72,0,0,1,1.67,1.41,2.23,2.23,0,0,1,0,1.87l-1.95-.83a1.21,1.21,0,0,0,0-.8,1.19,1.19,0,0,0-.57-.53.83.83,0,0,0-.6-.11.51.51,0,0,0-.36.27.39.39,0,0,0,0,.35,1.69,1.69,0,0,0,.55.58,9.44,9.44,0,0,1,1.61,1.51,2.23,2.23,0,0,1,.47,1.13,2,2,0,0,1-.22,1.1,2.32,2.32,0,0,1-.91,1,2.38,2.38,0,0,1-1.37.32,4.39,4.39,0,0,1-1.71-.5,3.63,3.63,0,0,1-2-1.78A2.8,2.8,0,0,1,162.43,155.2Z"/><path class="cls-2" d="M169.43,157.29a3.43,3.43,0,0,1,4.8-2.27,3.72,3.72,0,0,1,2.3,1.86,3.68,3.68,0,0,1,0,2.9,4.49,4.49,0,0,1-1.11,1.82,3,3,0,0,1-1.6.78,4,4,0,0,1-2.05-.26,4.59,4.59,0,0,1-1.79-1.05,3.17,3.17,0,0,1-.81-1.61A4.14,4.14,0,0,1,169.43,157.29Zm2.11.77a2.42,2.42,0,0,0-.15,1.63,1.39,1.39,0,0,0,.89.83,1.38,1.38,0,0,0,1.21-.07,2.7,2.7,0,0,0,.94-1.46,2.27,2.27,0,0,0,.12-1.55,1.37,1.37,0,0,0-.9-.82,1.34,1.34,0,0,0-1.19.08A2.47,2.47,0,0,0,171.54,158.06Z"/><path class="cls-2" d="M178.17,156.55l2.89.62.2,4.56,2-4.09,2.89.61-1.51,7.11-1.8-.38,1.15-5.42-2.54,5.13-1.63-.35-.23-5.72L178.46,164l-1.8-.38Z"/><path class="cls-2" d="M186.33,161.92a3.43,3.43,0,0,1,4-3.47,3.84,3.84,0,0,1,2.72,1.18,3.69,3.69,0,0,1,.77,2.8,4.48,4.48,0,0,1-.58,2,3.13,3.13,0,0,1-1.34,1.18,4.1,4.1,0,0,1-2,.3,4.83,4.83,0,0,1-2-.55,3.08,3.08,0,0,1-1.21-1.33A4.08,4.08,0,0,1,186.33,161.92Zm2.23.18a2.53,2.53,0,0,0,.29,1.61,1.56,1.56,0,0,0,2.23.18,2.7,2.7,0,0,0,.52-1.66,2.17,2.17,0,0,0-.3-1.53,1.4,1.4,0,0,0-1.08-.55,1.33,1.33,0,0,0-1.12.4A2.41,2.41,0,0,0,188.56,162.1Z"/><path class="cls-2" d="M194.45,163.7l2.13-.22a1.66,1.66,0,0,0,.32.78,1.18,1.18,0,0,0,1,.4,1.08,1.08,0,0,0,.74-.26.72.72,0,0,0,.24-.53.7.7,0,0,0-.27-.5,3,3,0,0,0-1.17-.37,4.85,4.85,0,0,1-2.14-.8,1.74,1.74,0,0,1-.69-1.37,1.8,1.8,0,0,1,.28-1.07,2.14,2.14,0,0,1,.94-.83,4.92,4.92,0,0,1,1.78-.36,3.67,3.67,0,0,1,2.14.44,2.25,2.25,0,0,1,.94,1.61l-2.11.21a1.11,1.11,0,0,0-.39-.7,1.08,1.08,0,0,0-.75-.19.85.85,0,0,0-.58.19.52.52,0,0,0-.19.41.42.42,0,0,0,.18.3,1.74,1.74,0,0,0,.76.24,9.27,9.27,0,0,1,2.14.56,2.28,2.28,0,0,1,1,.76,2,2,0,0,1,.33,1.07,2.3,2.3,0,0,1-.33,1.3,2.38,2.38,0,0,1-1,.94,4.48,4.48,0,0,1-1.74.38,3.65,3.65,0,0,1-2.6-.61A2.84,2.84,0,0,1,194.45,163.7Z"/><path class="cls-2" d="M204.3,158.12l2.2-.43,1,5.38,3.44-.66.34,1.76-5.65,1.09Z"/><path class="cls-2" d="M211,160.56a3.44,3.44,0,0,1,2.48-4.7,3.82,3.82,0,0,1,3,.11,3.69,3.69,0,0,1,1.75,2.32,4.49,4.49,0,0,1,.2,2.12,3,3,0,0,1-.81,1.58,4.13,4.13,0,0,1-1.8,1,4.69,4.69,0,0,1-2.06.23,3.11,3.11,0,0,1-1.61-.8A4.12,4.12,0,0,1,211,160.56Zm2.15-.65a2.41,2.41,0,0,0,.86,1.39,1.41,1.41,0,0,0,1.21.14,1.42,1.42,0,0,0,.93-.78,2.71,2.71,0,0,0-.12-1.74,2.23,2.23,0,0,0-.84-1.31,1.41,1.41,0,0,0-1.21-.12,1.36,1.36,0,0,0-.9.78A2.41,2.41,0,0,0,213.1,159.91Z"/><path class="cls-2" d="M219.18,159.24l1.9-1a1.56,1.56,0,0,0,.58.61,1.15,1.15,0,0,0,1.08,0,1.11,1.11,0,0,0,.59-.5.65.65,0,0,0-.4-1,2.93,2.93,0,0,0-1.23.08,4.88,4.88,0,0,1-2.28,0,1.75,1.75,0,0,1-1.15-1,2,2,0,0,1-.13-1.1,2.13,2.13,0,0,1,.58-1.12,4.64,4.64,0,0,1,1.52-1,3.68,3.68,0,0,1,2.15-.38,2.2,2.2,0,0,1,1.46,1.15l-1.88,1a1.22,1.22,0,0,0-.62-.51,1.15,1.15,0,0,0-.77.1.9.9,0,0,0-.47.39.51.51,0,0,0,0,.45.4.4,0,0,0,.28.22,1.8,1.8,0,0,0,.79-.06,9.4,9.4,0,0,1,2.19-.26,2.14,2.14,0,0,1,1.18.36,2,2,0,0,1,.7.87,2.24,2.24,0,0,1,.16,1.33,2.38,2.38,0,0,1-.62,1.26,4.38,4.38,0,0,1-1.48,1,3.63,3.63,0,0,1-2.64.39A2.81,2.81,0,0,1,219.18,159.24Z"/><path class="cls-2" d="M226.27,150.47l5.06-3.26.84,1.31-3.17,2,.63,1,2.94-1.89.8,1.24-2.94,1.89.78,1.21,3.26-2.1.89,1.39-5.16,3.31Z"/><path class="cls-2" d="M234.63,150.84l1.58-1.45a1.58,1.58,0,0,0,.72.44,1.18,1.18,0,0,0,1-.28,1.12,1.12,0,0,0,.44-.64.65.65,0,0,0-.64-.81,3,3,0,0,0-1.16.39,4.84,4.84,0,0,1-2.19.64,1.79,1.79,0,0,1-1.38-.69,1.93,1.93,0,0,1-.41-1,2.14,2.14,0,0,1,.27-1.22,4.49,4.49,0,0,1,1.21-1.35,3.68,3.68,0,0,1,2-.93,2.26,2.26,0,0,1,1.71.73l-1.57,1.43a1.12,1.12,0,0,0-.72-.33,1.17,1.17,0,0,0-.73.3.87.87,0,0,0-.35.5.5.5,0,0,0,.1.43.39.39,0,0,0,.32.14,1.83,1.83,0,0,0,.76-.26,9.68,9.68,0,0,1,2-.83,2.19,2.19,0,0,1,1.23,0,2,2,0,0,1,.9.65,2.21,2.21,0,0,1,.51,1.25,2.4,2.4,0,0,1-.27,1.37,4.55,4.55,0,0,1-1.17,1.34,3.62,3.62,0,0,1-2.45,1.06A2.81,2.81,0,0,1,234.63,150.84Z"/><path class="cls-2" d="M237,142.57l2.64-2.65a2.55,2.55,0,0,1,1.7-.88,2.17,2.17,0,0,1,1.6.73,2.24,2.24,0,0,1,.75,1.69,2.91,2.91,0,0,1-1,1.87l-.86.87,1.91,1.9-1.59,1.6Zm3.79.59.39-.39a1.44,1.44,0,0,0,.49-.81.73.73,0,0,0-.23-.59.79.79,0,0,0-.57-.25,1.17,1.17,0,0,0-.77.44l-.46.45Z"/><path class="cls-2" d="M241.74,137.8l3.77-4.7,1.21,1L244.36,137l.9.73,2.19-2.73,1.15.93-2.19,2.72,1.12.9,2.43-3,1.28,1-3.83,4.78Z"/><path class="cls-2" d="M252.12,130.78l1.56-1.35a3.7,3.7,0,0,1,.83,1.27,2.68,2.68,0,0,1,.14,1.34,4,4,0,0,1-.62,1.51A4.8,4.8,0,0,1,252.7,135a3.1,3.1,0,0,1-1.72.44,4,4,0,0,1-2.17-.73,3.77,3.77,0,0,1-1.82-2.29,4.33,4.33,0,0,1,2.26-4.34,3.18,3.18,0,0,1,2.06-.07l-.69,1.91a1.68,1.68,0,0,0-.52-.08,1.28,1.28,0,0,0-1,.62,1.33,1.33,0,0,0-.11,1.32,3.78,3.78,0,0,0,2.64,1.6,1.46,1.46,0,0,0,1.15-1.65A2.33,2.33,0,0,0,252.12,130.78Z"/><path class="cls-2" d="M249.77,126.22l1-2,6.46,3.35-1,2Z"/><path class="cls-2" d="M258.65,121.51l-1,2.35,1,.79-.87,2.12-5.67-5.31.94-2.26,7.76.26-.9,2.17Zm-1.63-.17-2.72-.26,2.11,1.73Z"/><path class="cls-2" d="M254,116.58l.63-2.16,5.26,1.55,1-3.37,1.71.51L261,118.63Z"/><path class="cls-2" d="M255.72,110.48l.47-2.2,7.11,1.49-.46,2.2Z"/><path class="cls-2" d="M261.21,108.24l.14-2.13a1.68,1.68,0,0,0,.82-.19,1.17,1.17,0,0,0,.56-.92,1.1,1.1,0,0,0-.13-.77.66.66,0,0,0-.49-.32.65.65,0,0,0-.53.18,2.81,2.81,0,0,0-.56,1.09,4.81,4.81,0,0,1-1.14,2,1.77,1.77,0,0,1-1.47.46,1.91,1.91,0,0,1-1-.46,2.12,2.12,0,0,1-.66-1.06,4.74,4.74,0,0,1-.06-1.81,3.74,3.74,0,0,1,.78-2.05,2.23,2.23,0,0,1,1.74-.66l-.14,2.12a1.16,1.16,0,0,0-.75.26,1.15,1.15,0,0,0-.31.72.8.8,0,0,0,.09.6.5.5,0,0,0,.37.25.43.43,0,0,0,.33-.12,1.83,1.83,0,0,0,.36-.72,10,10,0,0,1,.9-2,2.2,2.2,0,0,1,.92-.82,2,2,0,0,1,1.1-.16,2.23,2.23,0,0,1,1.23.55,2.45,2.45,0,0,1,.76,1.18,4.44,4.44,0,0,1,.08,1.78,3.63,3.63,0,0,1-1,2.46A2.85,2.85,0,0,1,261.21,108.24Z"/><path class="cls-2" d="M257.21,101.11l.11-6.83,1.8,0,0,2.29,5.48.09,0,2.25L259,98.85l0,2.29Z"/><path class="cls-2" d="M263,89.6l.22,2.54,1.23.26.19,2.28-7.48-2.11-.2-2.44,7-3.34.2,2.35Zm-1.52.6-2.54,1,2.67.57Z"/><path class="cls-2" d="M261.5,86.79,261,84.72a1.64,1.64,0,0,0,.72-.43,1.15,1.15,0,0,0,.24-1.06,1.09,1.09,0,0,0-.36-.68.67.67,0,0,0-.56-.16.66.66,0,0,0-.45.34,2.78,2.78,0,0,0-.19,1.21,4.91,4.91,0,0,1-.46,2.24,1.78,1.78,0,0,1-1.25.9,2,2,0,0,1-1.11-.11,2.2,2.2,0,0,1-.95-.81,4.66,4.66,0,0,1-.63-1.7,3.63,3.63,0,0,1,.1-2.19,2.23,2.23,0,0,1,1.45-1.17l.53,2.05a1.17,1.17,0,0,0-.63.49,1.11,1.11,0,0,0-.08.78.87.87,0,0,0,.28.54.5.5,0,0,0,.43.12.41.41,0,0,0,.28-.22,1.86,1.86,0,0,0,.11-.79,9.5,9.5,0,0,1,.23-2.2,2.16,2.16,0,0,1,.61-1.06,2,2,0,0,1,1-.5,2.37,2.37,0,0,1,1.34.13,2.44,2.44,0,0,1,1.08.89,4.24,4.24,0,0,1,.64,1.66,3.64,3.64,0,0,1-.2,2.66A2.79,2.79,0,0,1,261.5,86.79Z"/></svg>