<svg id="Capa_5" data-name="Capa 5" xmlns="http://www.w3.org/2000/svg" viewBox="0 0 595.16 352.36"><defs><style>.cls-1{fill:#4772b2;}</style></defs><title>KOYO</title><polygon class="cls-1" points="178.02 77.69 128.36 77.69 92.47 135.11 92.47 77.89 42.36 77.89 42.36 247.88 92.47 247.88 92.47 189.51 125.84 247.88 186.68 247.88 132.68 153.48 178.02 77.69"/><path class="cls-1" d="M358.62,191.32l-12.44-44.47H294.5l28.27,101h19.55l-5.87,20.34a45.08,45.08,0,0,1-36.79,28.34L341,316.67s22.83-13.57,31.22-42.51L408,151.54l-35.38-8.82Z"/><path class="cls-1" d="M237.08,141.21A55.88,55.88,0,1,0,293,197.09a55.89,55.89,0,0,0-55.88-55.88m0,82.26c-6.13,0-11.12-11.82-11.12-26.38s5-26.36,11.12-26.36,11.08,11.81,11.08,26.36-5,26.38-11.08,26.38"/><path class="cls-1" d="M466.49,141.21a55.88,55.88,0,1,0,55.85,55.88,55.88,55.88,0,0,0-55.85-55.88m0,82.26c-6.14,0-11.12-11.82-11.12-26.38s5-26.36,11.12-26.36,11.07,11.81,11.07,26.36-5,26.38-11.07,26.38"/><path class="cls-1" d="M546.5,228.89a5.31,5.31,0,0,1,2,1.52,6.61,6.61,0,0,1,1.09,1.81,5.92,5.92,0,0,1,.4,2.26,6.62,6.62,0,0,1-.77,3,4.19,4.19,0,0,1-2.54,2.09,3.91,3.91,0,0,1,2.08,1.69,6.79,6.79,0,0,1,.61,3.38v1.43a9.6,9.6,0,0,0,.14,2,1.75,1.75,0,0,0,.86,1.22v.54h-5c-.12-.46-.2-.84-.25-1.16a8.62,8.62,0,0,1-.2-1.86l0-2a4.16,4.16,0,0,0-.73-2.75,3.67,3.67,0,0,0-2.57-.68h-4.42v8.44h-4.43V228.34h10.34a9.93,9.93,0,0,1,3.38.55M537.21,232v5.86h4.87a5.14,5.14,0,0,0,2.17-.37,2.43,2.43,0,0,0,1.27-2.44,2.7,2.7,0,0,0-1.25-2.64,4.3,4.3,0,0,0-2.09-.41Z"/><path class="cls-1" d="M522.7,239.42a18.19,18.19,0,1,0,18.2-18.2,18.24,18.24,0,0,0-18.2,18.2m3,0a15.2,15.2,0,1,1,15.2,15.22,15.2,15.2,0,0,1-15.2-15.22"/></svg>