<svg id="Capa_4" data-name="Capa 4" xmlns="http://www.w3.org/2000/svg" viewBox="0 0 595.16 352.36"><defs><style>.cls-1{fill:#ed333f;}</style></defs><title>NACHI</title><path class="cls-1" d="M52.88,148.54v15q.06,41,.16,82c0,1.89-.51,2.3-2.3,2.25-4.36-.14-8.74-.13-13.11,0-1.65.05-2.05-.45-2.05-2.07q.08-41.52,0-83c0-10.12,0-20.25,0-30.38,0-1.66.46-2.11,2.08-2.06,7.9.25,15.81-.38,23.7.48a24.83,24.83,0,0,1,17.22,9.41c5.43,6.69,9.8,14.1,14.44,21.33,14.12,22,27.41,44.49,41.66,66.39.41.63.84,1.26,1.35,2a3.39,3.39,0,0,0,.36-2.41q0-47.44,0-94.9c0-3-.33-2.59,2.69-2.61,4.16,0,8.33.09,12.48,0,1.8-.06,2.31.36,2.31,2.25-.08,20,0,40.09,0,60.14,0,17.83,0,35.66,0,53.48,0,1.75-.45,2.22-2.2,2.14-6.44-.3-12.88.14-19.34-.06-10.08-.32-17.92-4.4-23.88-12.54-5.78-7.9-10.8-16.28-16-24.54q-19.07-30.26-38-60.59c-.36-.57-.75-1.12-1.13-1.68Z"/><path class="cls-1" d="M222.11,164c-3,6-5.91,11.74-8.71,17.53q-11.57,23.94-23.06,47.92c-1.11,2.3-1.1,2.32,1.5,2.32,16.51,0,33,0,49.53,0a2.75,2.75,0,0,1,3,1.86c2.15,4.64,4.45,9.2,6.83,14.06h-2.08q-35.28,0-70.56,0a17.79,17.79,0,0,1-3.72-.28C162,244.69,159.43,234.28,163.92,225c3-6.11,6.22-12.07,9.45-18q24.13-44.49,48.31-88.94a8.32,8.32,0,0,1,.58-.74c24.5,43.2,47.9,86.85,72,130.11a2.55,2.55,0,0,1-1.91.31c-8.81,0-17.62,0-26.43,0a2.65,2.65,0,0,1-2.79-1.78Q243,205.5,222.74,165.11C222.62,164.87,222.46,164.64,222.11,164Z"/><path class="cls-1" d="M511.81,188.89c0,18.86,0,37.73.05,56.6,0,1.87-.48,2.28-2.29,2.25-6.51-.12-13-.11-19.55,0-1.71,0-2.21-.37-2.2-2.14.07-15.33,0-30.66.09-46,0-2-.58-2.36-2.42-2.35q-26.75.1-53.48,0c-1.69,0-2.21.37-2.21,2.14.08,15.4,0,30.8.09,46.2,0,1.76-.48,2.17-2.18,2.14-6.66-.1-13.32-.08-20,0-1.45,0-1.85-.39-1.85-1.85q.06-57,0-114c0-1.44.38-1.9,1.85-1.88,6.73.07,13.46.08,20.19,0,1.59,0,2,.46,1.95,2-.05,15.4,0,30.8-.08,46.2,0,2,.57,2.39,2.43,2.38q26.75-.09,53.48,0c1.75,0,2.2-.49,2.19-2.21-.07-15.33,0-30.66-.09-46,0-2,.59-2.41,2.45-2.37,6.45.11,12.9.12,19.35,0,1.93,0,2.25.58,2.24,2.33C511.79,151.15,511.81,170,511.81,188.89Z"/><path class="cls-1" d="M367.36,247.69c-8.6,0-17.21.26-25.8-.07-10.45-.4-20.58-2.29-30-7.24-11.85-6.2-19-16.15-23.16-28.42a69.45,69.45,0,0,1,.93-48.08c6.58-17.31,19.63-27.32,37.66-31.1,9-1.9,18.15-2.28,27.3-2.39,13.53-.17,27.05-.12,40.58-.24,1.63,0,2.11.41,2.06,2.06q-.17,6.66,0,13.32c.05,1.59-.43,1.94-2,1.93-14.63-.14-29.27-.1-43.9.3a52.4,52.4,0,0,0-20.52,4.65c-7.05,3.21-11.38,8.89-13.39,16.12-3.39,12.21-3.93,24.57-.68,37s11.1,19.9,23.2,23.46c6.7,2,13.54,2.07,20.4,2.11,11.59.07,23.17,0,34.75,0,1.56,0,2.17.28,2.12,2-.14,4.29-.11,8.6,0,12.9,0,1.46-.39,1.86-1.85,1.85-9.23-.07-18.45,0-27.68,0Z"/><path class="cls-1" d="M555.41,129.07v67.38c0,16.37,0,32.74,0,49.11,0,1.72-.42,2.2-2.16,2.17q-10.08-.15-20.18,0c-1.5,0-1.81-.45-1.8-1.87q.06-45.66,0-91.34a3,3,0,0,1,.85-2.41q11.21-11.16,22.34-22.39A8.39,8.39,0,0,1,555.41,129.07Z"/><path class="cls-1" d="M543.29,124.9a16.2,16.2,0,1,1,16.3-16.22A16.17,16.17,0,0,1,543.29,124.9Z"/></svg>