<svg id="Capa_2" data-name="Capa 2" xmlns="http://www.w3.org/2000/svg" viewBox="0 0 595.16 352.36"><defs><style>.cls-1{fill:#e10031;}.cls-2{fill:#f7beca;}.cls-3{fill:#f8c6d1;}</style></defs><title>NSK</title><path class="cls-1" d="M85.3,257.12H28.87c-.41,0-.82,0-1.23-.06,1.51-12.73,2.38-25.51,3-38.32q1.58-30.66,1.21-61.38c-.14-13.19-.37-26.37-1-39.54-.36-7.18-.75-14.36-1.55-21.51-.14-1.19.44-1.09,1.23-1.09q23.63,0,47.26,0c6.18,0,12.36,0,18.54,0a2.16,2.16,0,0,1,2.23,1.28c12.32,22.09,25.39,43.73,39.5,64.74,2.17,3.22,4.41,6.4,6.62,9.6.33.18.38-.06.37-.28a17.39,17.39,0,0,0-.08-3.06c.07-10.12-.27-20.23-.72-30.33-.35-8.14-.82-16.27-1.52-24.39-.47-5.38-1-10.75-1.59-16.11-.12-1.16.07-1.46,1.28-1.45q27.25.06,54.52,0c.91,0,1.4,0,1.26,1.21-1.13,9.55-1.65,19.15-2.08,28.75q-1.26,27.78-1.07,55.6c.07,13.83.37,27.65,1.3,41.45a324.55,324.55,0,0,0,4,34.87l-8.1,0H137.24c-11.45-20.84-24.11-40.94-37.16-60.8-6-9.17-12.26-18.19-18.64-27.12-.1,0-.2-.21-.3-.12s-.06.28,0,.43a45.88,45.88,0,0,1,.53,9.44c0,17.13.55,34.25,1.49,51.35.46,8.45,1.07,16.9,2.08,25.31C85.31,256.11,85.28,256.62,85.3,257.12Z"/><path class="cls-1" d="M304.32,257.17h-4.4c-.6,0-1.19,0-1.78,0h-84c-.59,0-1.18,0-1.78-.07q0-26.24,0-52.48c0-1.07.35-1.21,1.26-1,12.29,3.12,24.84,4.43,37.43,5.48,21.86,1.83,43.78,2.58,65.72,2.61,4.3,0,8.6-.2,12.9-.37,1.06-.05,2.46.05,2.66-1.37.22-1.58-1.24-1.88-2.35-2.18q-14.55-4-29.27-7.24c-11.21-2.49-22.6-4-33.78-6.59-12.05-2.81-23.86-6.3-34.62-12.62-8.59-5.05-15.63-11.6-19.84-20.83-3.6-7.88-4.31-16.2-3.57-24.7a43.88,43.88,0,0,1,5.36-18.14c4.68-8.23,11.75-13.63,20.39-17.14a76.41,76.41,0,0,1,23.37-5c4-.3,8-.28,11.94-.28q44.1,0,88.2,0c1.48,0,1.75.43,1.74,1.8q-.06,23.91,0,47.81v1.6a80.59,80.59,0,0,0-12.29-2.54c-7.7-1.1-15.45-1.8-23.21-2.36-18.09-1.3-36.2-2-54.34-2-3.48,0-7,.15-10.44.25a9.08,9.08,0,0,0-1.62.25c-.66.16-1.24.5-1.28,1.25s.56,1.09,1.16,1.38a9.37,9.37,0,0,0,2.5.69c16.76,3.12,33.64,5.62,50.33,9.14,13,2.75,25.85,6.21,37.91,12,7.82,3.77,15,8.46,20.5,15.32a38.5,38.5,0,0,1,8.41,21.36,61.64,61.64,0,0,1-2.35,23.89c-3.67,11.73-11.59,19.55-22.71,24.36a89.17,89.17,0,0,1-23.56,6A218.23,218.23,0,0,1,304.32,257.17Z"/><path class="cls-1" d="M441.19,255.46c.29,1.51-.46,1.7-1.8,1.7-17.92-.05-35.84,0-53.76-.05-.59,0-1.47.35-1.4-.83,2-13.38,2.74-26.85,3.39-40.34,1-19.95,1.1-39.91.74-59.88-.27-14.88-.79-29.75-1.94-44.59-.4-5.11-.9-10.21-1.66-15.28-.13-.85.11-1,.88-1q26.52,0,53,0c.85,0,1,.18.94,1.07-2,19.84-2.44,39.75-2.63,59.67,0,.21-.09.45.12.61,4.67-6,9.4-12,14-18.06a357.07,357.07,0,0,0,26.16-38.92c.61-1.08,1.27-2.13,1.78-3.25a1.76,1.76,0,0,1,1.9-1.13c8.93,0,17.86,0,26.79,0h42.65c-2.3,2.49-4.41,4.75-6.51,7-16.17,17.6-31.72,35.74-47.26,53.89-.68.79-.35,1.24.05,1.88,12,19.18,24.84,37.86,38.09,56.23,10.39,14.4,21.06,28.59,32.38,42.28.14.17.26.37.39.55-.36,0-.73,0-1.1,0h-71.8l-1,0C484.75,238,474,219.85,463,201.9c-.63-1-1-2.68-2.07-2.8-.66-.08-1.54,1.59-2.29,2.51q-9.11,11.17-18.2,22.36a2.67,2.67,0,0,0-.63,2C440.31,235.8,440.41,245.64,441.19,255.46Z"/><path class="cls-2" d="M145,167.48c.09,1.31.19,2.62.29,4a.88.88,0,0,1-.58-.7C145.23,169.75,144.64,168.58,145,167.48Z"/><path class="cls-3" d="M81.15,169.51l-.45-1.14c.59.12.64.5.74.83Z"/></svg>