<svg id="NTN" xmlns="http://www.w3.org/2000/svg" viewBox="0 0 595.16 352.36"><defs><style>.cls-1{fill:#0081cc;}.cls-2{fill:#fff;}</style></defs><title>NTN-01</title><rect class="cls-1" width="595.16" height="352.36"/><path class="cls-2" d="M36.43,83.7,160.67,183.83v-2.61q0-46.25,0-92.47c0-2.11.49-2.64,2.61-2.63,12.16.12,24.31.1,36.46,0,1.83,0,2.48.3,2.47,2.35q-.1,89.82-.08,179.66a3,3,0,0,1-.33,2.09c-41.55-33.24-83.06-66.46-125-100V270c-1,.15-1.34-.41-1.77-.75q-18.55-14.4-37.11-28.81a3.23,3.23,0,0,1-1.59-2.83q.07-76.34,0-152.65C36.36,84.71,36.39,84.42,36.43,83.7Z"/><path class="cls-2" d="M559.89,270.46,434.45,170.12V270c-.94.29-1.31-.41-1.77-.76q-18.45-14.35-36.89-28.73a3.68,3.68,0,0,1-1.58-3.29q.06-75.43,0-150.87a4.06,4.06,0,0,1,.34-2.4q61.82,49.82,123.54,99.56c.68-1,.39-1.88.39-2.72q0-46,0-92c0-2.09.46-2.69,2.61-2.67,12.3.12,24.6.08,36.9,0,1.39,0,2,.15,2,1.84q-.07,90.69,0,181.39C560,269.59,560,269.81,559.89,270.46Z"/><path class="cls-2" d="M300.18,126.57c5.82,4.88,11.6,9.81,17.48,14.63A5.54,5.54,0,0,1,320,146q-.12,60.6-.07,121.21a4.66,4.66,0,0,1-.33,2.72c-4.29-3.4-8.51-6.74-12.72-10.1-9.66-7.72-19.3-15.46-29-23.12a3.9,3.9,0,0,1-1.65-3.47q.07-52.38.08-104.75c0-2-.47-2.53-2.5-2.53-17.49.07-35,0-52.48,0-1.64,0-2.23-.32-2.21-2.12q.12-18.45,0-36.89c0-1.64.39-2,2.05-2,28.91.12,57.82.15,86.73.24,22.77.06,45.53.19,68.29.22,1.76,0,2.36.33,2.34,2.23q-.14,18.12,0,36.23c0,2-.58,2.4-2.47,2.39q-36.66-.14-73.34-.13c-.79,0-1.58,0-2.37,0Z"/></svg>