<svg id="Capa_3" data-name="Capa 3" xmlns="http://www.w3.org/2000/svg" viewBox="0 0 595.16 352.36"><defs><style>.cls-1,.cls-2{fill-rule:evenodd;}.cls-2{fill:#e95123;}</style></defs><title>PAYEN</title><path class="cls-1" d="M509.52,152.66V145H478.46V214.6H508.8V173.85s0-5.66,5.83-5.66c4.49,0,6.29.45,7,4.94.44,4.49.26,41.47.26,41.47h30.61V161s0-17.5-21.63-17.95a27.69,27.69,0,0,0-21.36,9.6"/><polygon class="cls-1" points="321.91 145.03 355.39 145.03 363.74 170.88 375.68 145.03 406.74 145.03 365.26 238.12 333.58 238.12 347.76 205.53 321.91 145.03"/><polygon class="cls-2" points="141.66 214.6 28.29 214.6 86.36 115.32 141.66 214.6"/><path d="M289.5,145v6.55a25.88,25.88,0,0,0-8.79-6,24.59,24.59,0,0,0-11.23-2.24c-13.1-.18-28.09,10.14-28.09,34.65,0,24.77,9,39,26.12,39.13a31.56,31.56,0,0,0,13.29-2.51c5.65-2.51,7.18-5.66,7.18-4.49v4.58h31.5V145.12h-30Zm-8.44,44.79c-5.74,0-8.25-4.75-8.25-10.23,0-5.12,3.23-9.6,8.25-9.6s8.44,3.95,8.44,9.33-2.42,10.5-8.44,10.5"/><path d="M215.72,114.24H159.25V214.6h33.22V184.89h23.42c6.11,0,27.65-5.84,27.65-36,.09-31.78-25.76-34.65-27.82-34.65m-17.6,44.44h-5.65V139.47H198c6.11,0,11.58.44,11.58,9.06,0,9-5,10.15-11.49,10.15"/><path d="M429.81,184.62c-.27,6,1.79,12.74,8.25,12.83,5.21.09,7.54-1.25,8.08-6.19h27.47c-4.49,18.67-20.38,26.48-35.91,26.48-22.44,0-39-10-39-36.35,0-23.79,16.6-38.69,37.25-38.69,24.24,0,40.3,14.09,39.68,41.92Zm14.72-13.47c0-4.84-2.79-9.33-7.36-9.33-4.76,0-7.45,4.31-7.45,9.33Z"/><path d="M558.44,118.19a8.44,8.44,0,1,0,8.44,8.44,8.43,8.43,0,0,0-8.44-8.44m0,15.62a7.18,7.18,0,1,1,7.18-7.18,7.2,7.2,0,0,1-7.18,7.18"/><path d="M561,131.39l-2.15-4.22h-2.34v4.22h-1v-9.52h3.68a2.55,2.55,0,0,1,2.78,2.61,2.33,2.33,0,0,1-2.06,2.51l2.24,4.31H561Zm-1.88-8.62h-2.61v3.5H559a1.66,1.66,0,0,0,1.88-1.71,1.61,1.61,0,0,0-1.79-1.79"/></svg>